<svg width="252" height="116" viewBox="0 0 252 116" fill="none" xmlns="http://www.w3.org/2000/svg">
<path d="M44.64 39.56C44.64 47.816 36.384 53 19.392 53H9.216H7.104C6.816 53 6.624 52.904 6.432 52.904C4.896 52.808 3.648 52.52 2.688 52.136C2.592 52.136 2.496 52.04 2.304 51.944C2.016 51.848 1.728 51.656 1.536 51.464C1.248 51.176 0.96 50.888 0.864 50.504V50.216V50.024C0.864 49.448 1.056 48.776 1.344 48.008C1.44 47.624 1.632 47.24 1.824 46.856L2.016 46.28C2.592 44.936 3.072 43.4 3.072 41.864V14.312V13.832C3.072 13.64 2.976 13.352 2.976 13.16C2.592 11.048 1.536 9.032 1.056 7.496C0.96 7.016 0.864 6.536 0.864 6.152V5.768C1.056 5.192 1.44 4.808 2.016 4.424C2.304 4.232 2.688 4.04 3.168 3.944C3.264 3.848 3.456 3.848 3.648 3.752C4.32 3.56 5.088 3.464 6.048 3.368C6.144 3.368 6.336 3.272 6.432 3.272C7.296 3.17599 8.16 3.17599 9.216 3.17599H10.176H11.232H19.392C32.64 3.17599 41.184 8.264 41.184 16.52C41.184 22.76 37.056 26.024 29.856 27.272C40.032 28.712 44.64 32.936 44.64 39.56ZM31.104 38.888C31.104 33.992 27.744 30.536 20.352 30.536C18.144 30.536 16.896 31.016 16.512 32.552C16.32 33.512 16.32 34.664 16.32 35.624V43.4C16.416 46.472 17.088 47.144 20.064 47.144C28.224 47.144 31.104 43.88 31.104 38.888ZM20.352 24.968C24.288 24.968 27.648 21.8 27.648 17C27.648 12.008 24.768 9.032 20.064 9.032C17.088 9.032 16.416 9.8 16.32 12.872V21.608C16.32 22.568 16.416 23.336 16.704 24.104C17.184 24.968 18.336 24.968 20.352 24.968ZM51.5903 38.888C51.5903 31.4 51.3983 31.112 49.3823 28.904C48.1343 27.656 47.6543 27.08 47.6543 26.312C47.6543 24.776 49.2863 23.816 55.3343 21.32C60.3263 19.016 61.9583 18.536 63.3023 18.536C64.4543 18.536 65.2223 19.4 65.2223 21.512C65.2223 23.72 64.8383 27.08 64.8383 36.392V43.592C64.8383 46.856 66.7583 48.104 66.7583 50.024C66.7583 52.04 63.6863 53 58.6943 53H57.7343C52.6463 53 49.5742 52.04 49.5742 50.024C49.5742 48.104 51.5903 46.856 51.5903 43.592V38.888ZM66.1823 8.552C66.2783 12.872 62.5343 16.424 57.7343 16.616C52.9343 16.808 48.9983 13.448 48.8063 9.224C48.6143 5 52.4543 1.352 57.1583 1.16C62.0543 0.967995 65.9903 4.232 66.1823 8.552ZM106.536 25.64C106.536 30.248 103.56 33.8 100.392 33.8C97.032 33.8 95.688 28.136 93 28.136C90.888 28.136 88.104 31.88 86.664 36.584V43.592C86.664 46.856 88.584 48.104 88.584 50.024C88.584 52.04 85.608 53 80.52 53H79.656C74.568 53 71.496 52.04 71.496 50.024C71.496 48.104 73.416 46.856 73.416 43.592V38.792C73.416 32.744 73.416 31.016 71.88 29.576C70.536 28.424 69.864 27.848 69.864 26.6C69.864 25.16 70.92 24.104 75.816 21.416C80.904 18.632 83.112 17.768 84.936 17.768C86.472 17.768 87.144 18.632 87.144 20.36C87.144 21.8 86.856 23.528 86.76 28.04C89.736 22.664 94.152 17.48 98.856 17.48C103.656 17.48 106.536 21.032 106.536 25.64ZM123.159 52.424C120.855 47.144 115.479 35.336 113.751 31.304C110.007 22.952 107.511 23.528 107.511 20.936C107.511 18.92 112.119 17.864 117.399 17.864H118.263C123.543 17.864 127.095 18.824 127.095 20.84C127.095 22.76 124.887 23.816 126.039 26.792C127.095 29.96 130.551 37.64 132.471 41.768C134.583 36.68 136.311 32.456 137.751 28.712C139.383 24.68 138.423 23.72 136.695 22.952C134.775 22.088 134.199 21.32 134.199 20.648C134.199 18.92 136.119 18.056 142.167 18.056C148.503 18.056 150.231 18.728 150.231 20.36C150.231 21.704 146.103 23.528 144.663 26.984C142.071 33.128 140.247 37.352 136.023 47.72C131.319 58.952 127.095 63.752 119.799 63.752C114.999 63.752 110.679 62.024 109.335 57.896C108.279 54.728 110.487 51.752 113.943 51.752C117.495 51.752 119.223 53.864 119.031 56.936C118.743 59.432 119.607 60.488 121.143 60.488C123.255 60.488 125.463 57.896 123.159 52.424ZM186.932 50.6C185.78 51.656 182.708 53 178.772 53C173.3 53 171.38 50.6 170.804 47.24C168.212 50.696 163.508 52.904 158.708 52.904C152.276 52.904 148.052 49.832 148.052 44.84C148.052 40.136 151.796 36.776 158.42 34.376C166.58 31.4 168.02 30.536 168.02 28.232C167.444 24.296 166.676 22.568 164.948 22.568C163.316 22.568 162.356 24.2 161.684 26.888C160.916 30.056 158.804 32.264 154.964 31.976C151.508 31.88 149.684 29.288 150.355 26.12C151.508 21.32 157.652 18.536 165.332 18.536C175.124 18.536 180.692 22.76 181.844 31.112C182.708 37.064 183.476 43.592 183.764 44.84C184.148 47.144 184.724 47.624 186.452 48.2C187.7 48.488 187.892 49.736 186.932 50.6ZM169.268 37.544L168.788 33.992L167.444 34.568C163.22 36.68 161.396 39.272 161.396 42.344C161.396 45.224 162.932 46.76 165.14 46.76C167.54 46.76 170.228 44.552 169.268 37.736V37.544ZM192.479 38.792C192.479 32.744 192.479 31.016 190.943 29.576C189.599 28.424 188.927 27.848 188.927 26.6C188.927 25.16 189.983 24.104 194.879 21.416C199.967 18.632 202.174 17.768 203.999 17.768C205.535 17.768 206.207 18.632 206.207 20.36C206.207 21.224 206.111 22.088 206.015 23.528C208.703 20.552 212.255 18.536 216.191 18.536C223.007 18.536 224.351 22.952 225.215 31.304C225.791 37.064 226.367 41.288 226.751 43.976C227.231 46.472 228.095 47.624 229.823 48.104C230.975 48.392 231.167 49.64 230.303 50.504C228.959 51.752 225.695 53 221.855 53C215.807 53 213.791 50.504 213.503 45.512C213.215 41.96 213.023 38.792 212.734 33.128C212.543 26.984 211.775 24.584 209.855 24.584C207.455 24.584 205.727 29.672 205.727 36.2V36.488V43.592C205.727 46.856 207.647 48.104 207.647 50.024C207.647 52.04 204.671 53 199.583 53H198.719C193.631 53 190.559 52.04 190.559 50.024C190.559 48.104 192.479 46.856 192.479 43.592V38.792ZM236.09 38.888C236.09 31.4 235.898 31.112 233.882 28.904C232.634 27.656 232.154 27.08 232.154 26.312C232.154 24.776 233.786 23.816 239.834 21.32C244.826 19.016 246.458 18.536 247.802 18.536C248.954 18.536 249.722 19.4 249.722 21.512C249.722 23.72 249.338 27.08 249.338 36.392V43.592C249.338 46.856 251.258 48.104 251.258 50.024C251.258 52.04 248.186 53 243.194 53H242.234C237.146 53 234.074 52.04 234.074 50.024C234.074 48.104 236.09 46.856 236.09 43.592V38.888ZM250.682 8.552C250.778 12.872 247.034 16.424 242.234 16.616C237.434 16.808 233.498 13.448 233.306 9.224C233.114 5 236.954 1.352 241.658 1.16C246.554 0.967995 250.49 4.232 250.682 8.552ZM44.64 101.56C44.64 109.816 36.384 115 19.392 115H9.216H7.104C6.816 115 6.624 114.904 6.432 114.904C4.896 114.808 3.648 114.52 2.688 114.136C2.592 114.136 2.496 114.04 2.304 113.944C2.016 113.848 1.728 113.656 1.536 113.464C1.248 113.176 0.96 112.888 0.864 112.504V112.216V112.024C0.864 111.448 1.056 110.776 1.344 110.008C1.44 109.624 1.632 109.24 1.824 108.856L2.016 108.28C2.592 106.936 3.072 105.4 3.072 103.864V76.312V75.832C3.072 75.64 2.976 75.352 2.976 75.16C2.592 73.048 1.536 71.032 1.056 69.496C0.96 69.016 0.864 68.536 0.864 68.152V67.768C1.056 67.192 1.44 66.808 2.016 66.424C2.304 66.232 2.688 66.04 3.168 65.944C3.264 65.848 3.456 65.848 3.648 65.752C4.32 65.56 5.088 65.464 6.048 65.368C6.144 65.368 6.336 65.272 6.432 65.272C7.296 65.176 8.16 65.176 9.216 65.176H10.176H11.232H19.392C32.64 65.176 41.184 70.264 41.184 78.52C41.184 84.76 37.056 88.024 29.856 89.272C40.032 90.712 44.64 94.936 44.64 101.56ZM31.104 100.888C31.104 95.992 27.744 92.536 20.352 92.536C18.144 92.536 16.896 93.016 16.512 94.552C16.32 95.512 16.32 96.664 16.32 97.624V105.4C16.416 108.472 17.088 109.144 20.064 109.144C28.224 109.144 31.104 105.88 31.104 100.888ZM20.352 86.968C24.288 86.968 27.648 83.8 27.648 79C27.648 74.008 24.768 71.032 20.064 71.032C17.088 71.032 16.416 71.8 16.32 74.872V83.608C16.32 84.568 16.416 85.336 16.704 86.104C17.184 86.968 18.336 86.968 20.352 86.968ZM50.3423 100.792C50.3423 94.744 50.4383 90.424 48.8063 88.984C47.5583 87.832 46.7903 87.256 46.7903 86.008C46.7903 84.568 47.4623 83.608 52.8383 81.784C58.2143 79.864 60.0383 79.768 61.7663 79.768C63.3983 79.768 64.0703 80.632 64.0703 82.36C64.0703 84.472 63.6863 87.16 63.6863 98.488C63.6863 104.536 64.2623 108.952 66.4703 108.952C68.4863 108.952 70.6943 104.344 70.9823 97.72C70.8863 93.592 70.7903 89.752 69.7343 88.888C68.3903 87.832 67.8143 86.968 67.8143 86.008C67.8143 84.472 68.2943 83.512 73.3823 81.784C78.7583 79.864 80.5823 79.768 82.3103 79.768C83.9423 79.768 84.7103 80.632 84.7103 82.36C84.7103 84.472 84.1343 87.16 84.1343 98.488C84.1343 103.384 84.2303 105.4 84.2303 105.592C84.2303 108.568 85.5743 109.624 87.3983 110.104C88.4543 110.392 88.6463 111.64 87.7823 112.504C86.4383 113.752 83.1743 115 79.3343 115C74.5343 115 72.0383 113.464 71.2703 110.296C68.8703 113.176 65.6063 115 61.6703 115C54.4703 115 50.3423 111.256 50.3423 100.792ZM126.411 87.64C126.411 92.248 123.435 95.8 120.267 95.8C116.907 95.8 115.563 90.136 112.875 90.136C110.763 90.136 107.979 93.88 106.539 98.584V105.592C106.539 108.856 108.459 110.104 108.459 112.024C108.459 114.04 105.483 115 100.395 115H99.531C94.443 115 91.371 114.04 91.371 112.024C91.371 110.104 93.291 108.856 93.291 105.592V100.792C93.291 94.744 93.291 93.016 91.755 91.576C90.411 90.424 89.739 89.848 89.739 88.6C89.739 87.16 90.795 86.104 95.691 83.416C100.779 80.632 102.987 79.768 104.811 79.768C106.347 79.768 107.019 80.632 107.019 82.36C107.019 83.8 106.731 85.528 106.635 90.04C109.611 84.664 114.027 79.48 118.731 79.48C123.531 79.48 126.411 83.032 126.411 87.64ZM164.755 87.64C164.755 92.248 161.779 95.8 158.611 95.8C155.251 95.8 153.907 90.136 151.219 90.136C149.107 90.136 146.323 93.88 144.883 98.584V105.592C144.883 108.856 146.803 110.104 146.803 112.024C146.803 114.04 143.827 115 138.739 115H137.875C132.787 115 129.715 114.04 129.715 112.024C129.715 110.104 131.635 108.856 131.635 105.592V100.792C131.635 94.744 131.635 93.016 130.099 91.576C128.755 90.424 128.083 89.848 128.083 88.6C128.083 87.16 129.139 86.104 134.035 83.416C139.123 80.632 141.331 79.768 143.155 79.768C144.691 79.768 145.363 80.632 145.363 82.36C145.363 83.8 145.075 85.528 144.979 90.04C147.955 84.664 152.371 79.48 157.075 79.48C161.875 79.48 164.755 83.032 164.755 87.64ZM170.278 100.888C170.278 93.4 170.086 93.112 168.07 90.904C166.822 89.656 166.342 89.08 166.342 88.312C166.342 86.776 167.974 85.816 174.022 83.32C179.014 81.016 180.646 80.536 181.99 80.536C183.142 80.536 183.91 81.4 183.91 83.512C183.91 85.72 183.526 89.08 183.526 98.392V105.592C183.526 108.856 185.446 110.104 185.446 112.024C185.446 114.04 182.374 115 177.382 115H176.422C171.334 115 168.262 114.04 168.262 112.024C168.262 110.104 170.278 108.856 170.278 105.592V100.888ZM184.87 70.552C184.966 74.872 181.222 78.424 176.422 78.616C171.622 78.808 167.686 75.448 167.494 71.224C167.302 67 171.142 63.352 175.846 63.16C180.742 62.968 184.678 66.232 184.87 70.552ZM211.208 84.28C211.208 85.528 210.056 86.584 208.808 86.584H204.104V98.776C204.104 104.824 204.968 106.072 206.984 106.072C208.52 106.072 209.384 105.208 209.96 104.536C211.016 103.384 212.168 103.864 211.688 105.688C210.536 110.296 207.56 115.48 201.128 115.48C194.696 115.48 190.855 110.968 190.855 101.752V86.584H189.992C188.744 86.584 187.688 85.528 187.688 84.28C187.688 82.936 188.648 81.976 189.896 81.88H189.992H190.76C195.368 81.688 197.48 79.288 198.92 75.16C199.688 72.952 200.936 71.8 202.376 71.8C203.816 71.8 204.488 72.952 204.488 74.68C204.488 77.848 204.2 79.768 204.104 81.88H208.808C210.056 81.88 211.208 82.936 211.208 84.28ZM232.035 80.44C242.499 80.44 250.947 86.968 250.947 98.008C250.947 108.952 242.499 115.48 232.035 115.48C221.667 115.48 213.123 108.952 213.123 98.008C213.123 86.968 221.667 80.44 232.035 80.44ZM234.723 111.832C237.219 111.16 237.891 104.44 236.355 96.76C234.723 89.176 231.555 83.512 229.155 84.184C227.619 84.472 226.947 87.256 226.947 91.384C226.947 97.24 230.403 112.888 234.723 111.832Z" fill="#F4E8DF"/>
</svg>
