<svg width="21" height="22" viewBox="0 0 21 22" fill="none" xmlns="http://www.w3.org/2000/svg">
<path d="M0 0.942857C0 0.692796 0.0948277 0.452976 0.263622 0.276156C0.432417 0.0993363 0.661351 0 0.900063 0H1.56971C2.70979 0 3.39384 0.803314 3.78386 1.55006C4.04428 2.04789 4.2327 2.62491 4.38031 3.14789C4.42023 3.14458 4.46026 3.14291 4.50031 3.14286H19.499C20.495 3.14286 21.2151 4.14103 20.9415 5.14549L18.7477 13.2025C18.551 13.9252 18.1349 14.561 17.5624 15.0138C16.9898 15.4666 16.2921 15.7116 15.5747 15.7118H8.43659C7.71353 15.7118 7.01047 15.4631 6.43548 15.0038C5.86049 14.5446 5.44538 13.9002 5.25397 13.1698L4.3419 9.68503L2.8298 4.34469L2.8286 4.33463C2.64138 3.62183 2.46617 2.95429 2.20455 2.45646C1.95374 1.97246 1.75212 1.88571 1.57091 1.88571H0.900063C0.661351 1.88571 0.432417 1.78638 0.263622 1.60956C0.0948277 1.43274 0 1.19292 0 0.942857ZM7.80055 22C8.43711 22 9.0476 21.7351 9.49772 21.2636C9.94784 20.7921 10.2007 20.1525 10.2007 19.4857C10.2007 18.8189 9.94784 18.1794 9.49772 17.7078C9.0476 17.2363 8.43711 16.9714 7.80055 16.9714C7.16398 16.9714 6.55349 17.2363 6.10337 17.7078C5.65325 18.1794 5.40038 18.8189 5.40038 19.4857C5.40038 20.1525 5.65325 20.7921 6.10337 21.2636C6.55349 21.7351 7.16398 22 7.80055 22ZM16.2011 22C16.8377 22 17.4482 21.7351 17.8983 21.2636C18.3484 20.7921 18.6013 20.1525 18.6013 19.4857C18.6013 18.8189 18.3484 18.1794 17.8983 17.7078C17.4482 17.2363 16.8377 16.9714 16.2011 16.9714C15.5646 16.9714 14.9541 17.2363 14.504 17.7078C14.0538 18.1794 13.801 18.8189 13.801 19.4857C13.801 20.1525 14.0538 20.7921 14.504 21.2636C14.9541 21.7351 15.5646 22 16.2011 22Z" fill="white"/>
</svg>
