<svg width="15" height="15" viewBox="0 0 15 15" fill="none" xmlns="http://www.w3.org/2000/svg">
<path d="M3.05108 12.949C2.38251 12.3033 1.84923 11.5308 1.48237 10.6768C1.11551 9.82279 0.922404 8.90425 0.914327 7.9748C0.90625 7.04534 1.08336 6.12358 1.43533 5.26331C1.78729 4.40304 2.30707 3.62147 2.96431 2.96422C3.62156 2.30697 4.40313 1.7872 5.2634 1.43524C6.12368 1.08327 7.04543 0.906159 7.97489 0.914235C8.90434 0.922312 9.82288 1.11542 10.6769 1.48228C11.5309 1.84914 12.3034 2.38242 12.9491 3.05099C14.2242 4.3712 14.9297 6.13942 14.9138 7.9748C14.8978 9.81017 14.1617 11.5659 12.8638 12.8637C11.566 14.1616 9.81027 14.8978 7.97489 14.9137C6.13951 14.9297 4.3713 14.2241 3.05108 12.949ZM4.03808 11.962C5.08887 13.0128 6.51404 13.6031 8.00008 13.6031C9.48612 13.6031 10.9113 13.0128 11.9621 11.962C13.0129 10.9112 13.6032 9.48603 13.6032 7.99999C13.6032 6.51395 13.0129 5.08878 11.9621 4.03799C10.9113 2.9872 9.48612 2.39687 8.00008 2.39687C6.51404 2.39687 5.08887 2.9872 4.03808 4.03799C2.98729 5.08878 2.39697 6.51395 2.39697 7.99999C2.39697 9.48603 2.98729 10.9112 4.03808 11.962ZM10.9681 6.01899L8.98708 7.99999L10.9681 9.98099L9.98108 10.968L8.00008 8.98699L6.01908 10.968L5.03208 9.98099L7.01308 7.99999L5.03208 6.01899L6.01908 5.03199L8.00008 7.01299L9.98108 5.03199L10.9681 6.01899Z" fill="white"/>
</svg>
