<svg width="1440" height="93" viewBox="0 0 1440 93" fill="none" xmlns="http://www.w3.org/2000/svg">
<rect y="38" width="1440" height="55" fill="#243F2F"/>
<g clip-path="url(#clip0_1_1499)">
<path d="M-24.1875 54.0938L-24.375 26.5313C170.906 43.9688 263.438 35.9063 377.906 12.8438C492.281 -10.2187 560.719 3.18753 693.469 33.2813C826.219 63.375 1008.84 12.375 1146.19 12.375C1283.53 12.375 1365.94 42.9375 1463.06 42.9375V54.0938H-24.1875Z" fill="#80BC42"/>
</g>
<g clip-path="url(#clip1_1_1499)">
<path d="M1464.19 55.0938L1464.38 27.5313C1269.09 44.9688 1176.56 36.9063 1062.09 13.8438C947.719 -9.21872 879.281 4.18753 746.531 34.2813C613.781 64.375 431.156 13.375 293.812 13.375C156.469 13.375 74.0625 43.9375 -23.0625 43.9375V55.0938H1464.19Z" fill="#243F2F"/>
</g>
<defs>
<clipPath id="clip0_1_1499">
<rect width="1500" height="54.1875" fill="white" transform="matrix(-1 0 0 1 1470 0)"/>
</clipPath>
<clipPath id="clip1_1_1499">
<rect width="1500" height="54.1875" fill="white" transform="translate(-30 1)"/>
</clipPath>
</defs>
</svg>
