<svg width="143" height="64" viewBox="0 0 143 64" fill="none" xmlns="http://www.w3.org/2000/svg">
<path d="M2.57524 19.9025C1.96278 19.29 1.72745 19.0076 1.72745 18.6308C1.72745 17.8768 2.52817 17.4058 5.49574 16.1809C7.94528 15.0504 8.7463 14.8151 9.40583 14.8151C9.97092 14.8151 10.3478 15.239 10.3478 16.2754C10.3478 17.3588 10.1595 19.0076 10.1595 23.5769V27.1099C10.1595 28.7113 11.1017 29.3238 11.1017 30.266C11.1017 31.2553 9.59409 31.7263 7.14455 31.7263H6.67359C4.17668 31.7263 2.66937 31.2553 2.66937 30.266C2.66937 29.3238 3.65866 28.7113 3.65866 27.1099V24.8015C3.65866 21.1274 3.56453 20.9859 2.57524 19.9025Z" fill="white"/>
<path d="M13.5035 20.2322C12.844 19.6671 12.5142 19.3844 12.5142 18.7719C12.5142 18.0653 13.0326 17.547 15.4347 16.2279C17.9316 14.8618 19.0151 14.4379 19.9102 14.4379C20.6639 14.4379 20.9936 14.8618 20.9936 15.7099C20.9936 16.0397 20.9466 16.4165 20.8992 16.9348C22.0771 15.6628 23.6314 14.815 25.4214 14.815C28.4834 14.815 29.0488 16.9816 29.4727 21.0799C29.7554 23.9066 30.0381 25.9793 30.2264 27.2984C30.462 28.523 30.8859 29.0884 31.734 29.3237C32.2991 29.4652 32.3932 30.0774 31.9693 30.5016C31.3101 31.1137 29.7084 31.7262 27.8239 31.7262C24.8564 31.7262 23.8671 30.5016 23.7259 28.052C23.5844 26.3091 23.4902 24.7544 23.3487 21.9751C23.2546 18.9605 23.0663 17.7826 22.2182 17.7826C21.229 17.7826 20.8051 19.9495 20.758 22.7758V27.1098C20.758 28.7113 21.7002 29.3237 21.7002 30.2659C21.7002 31.2552 20.24 31.7262 17.7431 31.7262H17.3192C14.8226 31.7262 13.3149 31.2552 13.3149 30.2659C13.3149 29.3237 14.2572 28.7113 14.2572 27.1098V24.7544C14.2572 21.7868 14.2572 20.9387 13.5035 20.2322Z" fill="white"/>
<path d="M43.275 21.504C47.8443 22.8231 49.3519 24.3774 49.3519 26.8273C49.3519 30.2658 45.6304 31.9617 40.8725 31.9617C37.0098 31.9617 34.1363 31.1139 33.147 28.7114C32.3934 26.8273 33.5709 24.9899 35.7848 24.9899C37.4337 24.9899 38.7527 25.8851 38.8468 27.6751C38.9413 29.371 39.5534 30.0776 40.5427 30.0776C41.7206 30.0776 42.3327 29.1824 42.3327 27.8633C42.3327 26.5917 41.1552 25.3197 38.9883 24.7546C36.0205 23.9536 33.5239 22.6348 33.5239 19.9496C33.5239 16.5579 37.4807 14.7679 42.0033 14.7679C45.3947 14.7679 47.7502 15.8513 48.5509 17.6884C49.3045 19.5728 48.174 21.2687 46.0072 21.2687C44.3584 21.2687 43.3694 20.515 42.9923 18.6776C42.7099 17.1703 42.6157 16.652 41.6262 16.652C40.6842 16.652 40.4957 17.453 40.4957 18.4891C40.4957 19.6199 41.2964 20.9389 43.275 21.504Z" fill="white"/>
<path d="M59.9036 17.7826H58.0192V23.7651C58.0192 26.5915 58.2548 27.3455 59.2441 27.3455C59.9978 27.3455 60.1863 26.9213 60.4687 26.5915C60.987 26.0261 61.5524 26.2617 61.3168 27.1569C60.7514 29.4179 59.4327 31.9619 56.135 31.9619C53.1201 31.9619 51.5186 29.7476 51.5186 25.2254V17.7826H51.0947C50.4823 17.7826 49.964 17.2643 49.964 16.6522C49.964 15.9926 50.4349 15.5214 51.0474 15.4743H51.0947C53.6384 15.4743 54.7218 14.2967 55.4755 12.177C55.8523 11.0935 56.4648 10.5281 57.1714 10.5281C57.878 10.5281 58.2077 11.0935 58.2077 11.9413C58.2077 13.4957 58.0665 14.4379 58.0192 15.4743H59.9036C60.5161 15.4743 61.0812 15.9926 61.0812 16.6522C61.0812 17.2643 60.5161 17.7826 59.9036 17.7826Z" fill="white"/>
<path d="M71.7746 22.3991L71.115 22.6818C69.5603 23.5298 68.9953 25.1784 68.9953 26.4974C68.9953 27.9106 69.5133 28.6643 70.5026 28.6643C71.4448 28.6643 72.4811 27.5808 72.0099 24.142L71.7746 22.3991ZM76.6736 31.7263C74.0829 31.7263 73.1407 30.5958 72.8109 29.0411C71.7275 30.6428 69.9842 31.6792 67.6762 31.6792C64.5201 31.6792 62.4474 30.1719 62.4474 27.722C62.4474 25.414 64.2844 23.7652 67.535 22.5876C70.8794 21.3627 71.4448 20.8917 71.4448 20.0907C71.1621 17.7827 70.9268 16.7934 70.2672 16.7934C69.7018 16.7934 69.4662 17.5941 69.1364 18.9132C68.7596 20.4678 67.7233 21.5513 65.8391 21.4098C64.1432 21.3627 63.2481 20.0907 63.5778 18.5363C64.1432 16.1809 66.734 14.8148 70.5026 14.8148C75.3075 14.8148 77.6156 16.8875 78.181 20.9859C78.6051 23.9064 78.9817 27.1099 79.1232 27.722C79.3117 28.8528 79.5941 29.0882 80.4422 29.3708C81.0547 29.512 81.1488 30.1245 80.6776 30.5484C80.1125 31.0667 78.6051 31.7263 76.6736 31.7263Z" fill="white"/>
<path d="M82.6559 20.2322C81.9964 19.6671 81.6666 19.3844 81.6666 18.7719C81.6666 18.0653 82.185 17.547 84.5871 16.2279C87.0841 14.8618 88.1675 14.4379 89.0626 14.4379C89.8163 14.4379 90.1461 14.8618 90.1461 15.7099C90.1461 16.0397 90.0987 16.4165 90.0516 16.9348C91.2292 15.6628 92.7839 14.815 94.5739 14.815C97.6359 14.815 98.2013 16.9816 98.6252 21.0799C98.9076 23.9066 99.1906 25.9793 99.3788 27.2984C99.6144 28.523 100.038 29.0884 100.886 29.3237C101.452 29.4652 101.546 30.0774 101.122 30.5016C100.462 31.1137 98.8608 31.7262 96.9763 31.7262C94.0088 31.7262 93.0195 30.5016 92.8783 28.052C92.7368 26.3091 92.6427 24.7544 92.5012 21.9751C92.407 18.9605 92.2188 17.7826 91.3707 17.7826C90.3814 17.7826 89.9575 19.9495 89.9104 22.7758V27.1098C89.9104 28.7113 90.8526 29.3237 90.8526 30.2659C90.8526 31.2552 89.3921 31.7262 86.8955 31.7262H86.4716C83.975 31.7262 82.4674 31.2552 82.4674 30.2659C82.4674 29.3237 83.4096 28.7113 83.4096 27.1098V24.7544C83.4096 21.7868 83.4096 20.9387 82.6559 20.2322Z" fill="white"/>
<path d="M110.921 17.7826H109.036V23.7651C109.036 26.5915 109.272 27.3455 110.261 27.3455C111.015 27.3455 111.203 26.9213 111.486 26.5915C112.004 26.0261 112.57 26.2617 112.334 27.1569C111.768 29.4179 110.449 31.9619 107.152 31.9619C104.137 31.9619 102.536 29.7476 102.536 25.2254V17.7826H102.112C101.499 17.7826 100.981 17.2643 100.981 16.6522C100.981 15.9926 101.452 15.5214 102.064 15.4743H102.112C104.655 15.4743 105.739 14.2967 106.493 12.177C106.869 11.0935 107.482 10.5281 108.188 10.5281C108.895 10.5281 109.225 11.0935 109.225 11.9413C109.225 13.4957 109.084 14.4379 109.036 15.4743H110.921C111.533 15.4743 112.098 15.9926 112.098 16.6522C112.098 17.2643 111.533 17.7826 110.921 17.7826Z" fill="white"/>
<path d="M113.936 12.0827C113.323 11.6117 112.946 11.329 112.946 10.7166C112.946 10.01 113.794 9.49165 116.244 8.1729C118.693 6.85385 119.777 6.47702 120.625 6.47702C121.426 6.47702 121.85 6.94798 121.85 7.70163C121.85 8.73799 121.473 10.01 121.473 15.5686V27.1097C121.473 28.7114 122.462 29.3239 122.462 30.2658C122.462 31.2551 121.002 31.7261 118.458 31.7261H118.034C115.49 31.7261 114.03 31.2551 114.03 30.2658C114.03 29.3239 115.019 28.7114 115.019 27.1097V16.6991C115.019 13.6374 114.878 12.8834 113.936 12.0827Z" fill="white"/>
<path d="M125.947 21.0801C124.11 16.9817 122.885 17.2644 122.885 15.9928C122.885 15.0032 125.146 14.4851 127.737 14.4851H128.161C130.752 14.4851 132.495 14.9564 132.495 15.9454C132.495 16.8876 131.412 17.4056 131.977 18.8659C132.495 20.4206 133.767 24.095 134.662 26.1207C135.604 23.6711 136.169 21.6455 136.876 19.8084C137.677 17.8298 137.206 17.3586 136.358 16.9817C135.416 16.5578 135.133 16.181 135.133 15.8513C135.133 15.0032 136.075 14.5793 139.043 14.5793C142.152 14.5793 143 14.909 143 15.7098C143 16.3693 140.974 17.2644 140.268 18.9603C138.996 21.9753 138.525 24.0477 136.452 29.1353C134.097 34.9295 132.589 37.0023 128.915 37.0023C126.56 37.0023 124.44 36.1545 123.781 34.1288C123.262 32.5741 124.346 31.1139 126.041 31.1139C127.784 31.1139 128.632 32.1502 128.538 33.6576C128.397 34.8825 128.821 35.4005 129.574 35.4005C130.799 35.4005 131.6 33.8932 130.564 31.4437C129.433 28.8529 126.795 23.0587 125.947 21.0801Z" fill="white"/>
<path d="M14.743 45.534C15.2814 44.3488 15.9279 43.1103 16.4665 41.8173C17.4364 39.6089 17.8132 38.5853 16.9515 37.9388C16.2512 37.5079 16.0356 36.9155 16.0356 36.5921C16.0356 35.7304 17.113 35.1917 20.5606 35.1917C23.9002 35.1917 24.6004 35.8382 24.6004 36.6462C24.6004 37.8851 21.7455 38.37 20.3988 41.1171C18.6753 44.6722 17.4364 47.2578 16.6281 49.0354V56.8458C16.6281 58.6774 17.921 60.3472 17.921 61.4246C17.921 62.5557 16.0356 63.0943 13.1807 63.0943H12.6424C9.78745 63.0943 7.9021 62.5557 7.9021 61.4246C7.9021 60.3472 9.19473 58.6774 9.19473 56.8458V50.3817C8.11738 47.7424 6.93254 45.2109 6.28607 43.8642C4.34697 39.7164 1.59955 38.2084 1.59955 36.9155C1.59955 35.7844 3.7005 35.1917 6.50136 35.1917H7.36342C10.3261 35.1917 12.5346 35.5688 12.5346 36.6999C12.5346 37.562 11.8341 38.5853 12.2112 39.6089C12.5346 40.6322 13.5041 42.9484 14.743 45.534Z" fill="white"/>
<path d="M38.7666 48.2274C37.474 41.6555 35.9117 37.5079 33.8648 37.8313C31.8179 38.1544 32.7337 47.15 33.2186 50.0049C34.2957 56.2534 36.3966 60.8318 38.3357 60.455C40.0055 60.1854 40.0055 54.3681 38.7666 48.2274ZM48.3009 49.1432C48.3009 58.1385 43.2376 63.4174 36.0195 63.4174C28.8015 63.4174 23.7381 58.1385 23.7381 49.1432C23.7381 40.0935 28.8015 34.8686 36.0195 34.8686C43.2376 34.8686 48.3009 40.0935 48.3009 49.1432Z" fill="white"/>
<path d="M61.1206 63.3636C55.0336 63.3636 50.563 60.7242 50.563 52.3751V41.3863C50.563 39.555 49.2701 37.8849 49.2701 36.8076C49.2701 35.6765 51.2092 35.1378 54.0103 35.1378H54.549C57.4039 35.1378 59.2893 35.6765 59.2893 36.8076C59.2893 37.8849 57.9963 39.555 57.9963 41.3863V52.3751C57.9963 57.8156 59.1815 59.97 62.0901 59.97C65.2144 59.97 66.1839 57.0613 66.1839 52.3751V41.3863C66.1839 39.555 64.4604 37.8849 64.4604 36.8076C64.4604 35.6765 65.9683 35.1378 68.2849 35.1378H68.6617C70.9779 35.1378 72.5402 35.6765 72.5402 36.8076C72.5402 37.8849 70.8164 39.555 70.8164 41.3863V52.3751C70.8164 58.5158 68.2311 63.3636 61.1206 63.3636Z" fill="white"/>
<path d="M89.0219 44.1874C89.0219 41.4403 88.591 38.4238 84.282 38.4238C82.6656 38.4238 82.6656 38.9622 82.6656 41.3862V47.4732C82.6656 49.1429 82.9353 49.5738 84.4435 49.5738C87.9986 49.5738 89.0219 46.8808 89.0219 44.1874ZM96.6171 43.9718C96.6171 47.096 95.1626 49.5201 92.3618 51.0283C93.3851 53.183 94.0853 54.9606 95.8628 57.0612C97.4789 59.0003 98.664 59.2697 99.6336 59.6468C100.495 59.9702 101.088 60.4548 100.98 61.1013C100.872 62.1786 99.2027 63.0944 96.0247 63.0944C92.3077 63.0944 89.7221 61.8015 88.2139 59.2159C85.6283 54.9606 86.2748 52.6981 84.1742 52.6981C83.0968 52.7521 82.6656 53.2367 82.6656 55.1759V56.8459C82.6656 58.6772 83.9586 60.347 83.9586 61.4243C83.9586 62.5557 82.0732 63.0944 79.2183 63.0944H78.6796C75.8788 63.0944 73.9934 62.5557 73.9934 61.4243C73.9934 60.347 75.2323 58.6772 75.2323 56.8459V41.3862C75.2323 39.5549 73.9934 37.8851 73.9934 36.8078C73.9934 35.6767 75.8788 35.138 78.6796 35.138H83.9048C92.5233 35.138 96.6171 38.6391 96.6171 43.9718Z" fill="white"/>
<path d="M115.308 46.3958C122.203 48.2274 124.573 51.7285 124.573 55.1221C124.573 60.4011 119.294 63.4175 112.345 63.4175C106.151 63.4175 102.65 60.9394 101.303 57.8155C100.064 54.6375 101.303 52.0516 104.158 51.8363C106.582 51.6748 108.144 52.7521 108.521 55.6067C108.898 58.3001 110.514 60.078 113.153 60.078C115.362 60.078 117.247 58.5694 117.247 56.3073C117.247 54.5834 115.577 52.8599 109.76 51.2436C104.966 49.7894 102.488 47.3654 102.488 43.2716C102.488 38.0467 106.743 34.9224 113.261 34.9224C118.217 34.9224 121.233 37.1849 122.526 40.2014C123.765 43.3256 122.095 45.48 119.186 45.48C117.355 45.48 115.739 44.1333 115.092 41.494C114.608 39.2856 113.584 37.7774 112.238 37.7774C110.298 37.7774 109.49 39.3934 109.49 41.1709C109.49 43.0022 110.514 45.1569 115.308 46.3958Z" fill="white"/>
<path d="M6.5556 2.48215L8.84937 0.0611534C8.97204 -0.0682011 9.18976 0.0216789 9.1849 0.199922L9.09532 3.53399C9.09229 3.64543 9.18338 3.73653 9.29482 3.73379L12.6286 3.64391C12.8071 3.63905 12.8973 3.85677 12.7677 3.97945L10.3467 6.27321C10.2659 6.35004 10.2659 6.47878 10.3467 6.55561L12.7677 8.84968C12.8973 8.97235 12.8071 9.18977 12.6286 9.18521L9.29482 9.09533C9.18338 9.09229 9.09229 9.18339 9.09532 9.29483L9.1849 12.6289C9.18976 12.8071 8.97204 12.8973 8.84937 12.768L6.5556 10.3467C6.47878 10.2659 6.35003 10.2659 6.27321 10.3467L3.97944 12.768C3.85676 12.8973 3.63905 12.8071 3.64391 12.6289L3.73379 9.29483C3.73652 9.18339 3.64542 9.09229 3.53398 9.09533L0.199913 9.18521C0.021671 9.18977 -0.0682094 8.97235 0.0611452 8.84968L2.48184 6.55561C2.56291 6.47878 2.56291 6.35004 2.48184 6.27321L0.0611452 3.97945C-0.0682094 3.85677 0.021671 3.63905 0.199913 3.64391L3.53398 3.73379C3.64542 3.73653 3.73652 3.64543 3.73379 3.53399L3.64391 0.199922C3.63905 0.0216789 3.85676 -0.0682011 3.97944 0.0611534L6.27321 2.48215C6.35003 2.56292 6.47878 2.56292 6.5556 2.48215Z" fill="white"/>
</svg>
