<svg width="96" height="60" viewBox="0 0 96 60" fill="none" xmlns="http://www.w3.org/2000/svg">
    <path fillRule="evenodd" clipRule="evenodd"
        d="M82.4755 54.8619C83.2469 54.8619 83.8449 54.7031 84.2691 54.3856C84.6933 54.0678 84.9057 53.6018 84.9057 52.9855C84.9057 52.3892 84.6933 51.9274 84.2691 51.6C83.8449 51.2732 83.2662 51.1095 82.5332 51.1095H74.7431C74.7431 52.7257 74.7815 53.9771 74.8592 54.8619H82.4755ZM81.9929 46.6063C82.4748 46.6063 82.8562 46.4764 83.1357 46.2168C83.4152 45.9566 83.5551 45.606 83.5551 45.1631C83.5551 44.7399 83.4007 44.3935 83.0925 44.124C82.7837 43.8547 82.3785 43.72 81.8772 43.72H74.8011C74.7621 44.3359 74.7431 45.2979 74.7431 46.6063H81.9929ZM69.42 59.4802C69.6125 56.3437 69.7092 52.9762 69.7092 49.3775C69.7092 45.7791 69.6125 42.4116 69.42 39.2744H82.8607C84.693 39.2744 86.1446 39.7176 87.2148 40.6024C88.2853 41.4879 88.8205 42.7387 88.8205 44.3549C88.8205 45.4906 88.4878 46.4526 87.8224 47.2415C87.1571 48.0305 86.3515 48.5306 85.4067 48.7423C86.1011 48.8195 87.2058 49.0555 87.8708 49.4495C88.5365 49.8442 89.0861 50.3877 89.5203 51.0805C89.9539 51.7733 90.1711 52.5915 90.1711 53.5339C90.1711 55.3624 89.5635 56.8104 88.3482 57.8782C87.1332 58.9463 85.4841 59.4802 83.4013 59.4802H69.42ZM66.0641 39.2744C65.9674 41.026 65.9049 42.575 65.8759 43.9217C65.8469 45.269 65.8327 47.0875 65.8327 49.3775V51.3401C65.8327 54.073 65.1332 56.1996 63.7351 57.7193C62.3364 59.24 59.5322 59.9897 56.8128 59.9897C54.0934 59.9897 51.482 59.24 50.0839 57.7193C48.6852 56.1996 47.9863 54.073 47.9863 51.3401V49.3775C47.9863 47.0875 47.9718 45.269 47.9428 43.9217C47.9138 42.575 47.8513 41.026 47.7549 39.2744H53.3097C53.1163 42.6808 53.0203 46.01 53.0203 49.262V51.571C53.0203 52.707 53.145 53.4088 53.6946 54.0727C54.2443 54.7365 55.3483 55.1289 56.495 55.2875C57.5455 55.4332 59.4245 54.934 59.9742 54.2702C60.5238 53.6063 60.7984 52.707 60.7984 51.571V49.262C60.7984 46.01 60.702 42.6808 60.5093 39.2744H66.0641ZM28.5762 59.4803C28.7689 55.8822 28.8656 52.5144 28.8656 49.3775C28.8656 46.2409 28.7689 42.8735 28.5762 39.2744H34.131C34.0537 40.8144 33.9863 42.291 33.9283 43.7052C33.8706 45.1197 33.8419 46.568 33.8419 48.0495C33.8419 50.6669 33.8996 52.8987 34.0153 54.7465H45.7282L44.8024 59.4803H28.5762ZM12.3633 58.7153C10.7045 57.8591 9.41698 56.6418 8.50116 55.0638C7.58502 53.4859 7.12695 51.6288 7.12695 49.4929C7.12695 47.3762 7.59921 45.4998 8.54468 43.864C9.48919 42.2285 10.7867 40.968 12.4359 40.0826C14.0847 39.1978 15.9222 38.7549 17.9472 38.7549C20.2037 38.7549 21.9396 39.1206 23.1546 39.8516C23.444 40.025 23.6465 40.2225 23.7622 40.4434C23.8779 40.6651 23.945 40.9484 23.9647 41.2948L24.3118 46.8947C22.9615 44.7781 20.9941 43.7199 18.4098 43.7199C17.2525 43.7199 16.2258 43.9701 15.3287 44.4703C14.4319 44.9707 13.7375 45.6536 13.2459 46.5194C12.754 47.3855 12.5084 48.3575 12.5084 49.435C12.5084 51.1094 13.0332 52.4615 14.0847 53.4904C15.1359 54.5203 16.5775 55.0352 18.4098 55.0352C21.3413 55.0352 23.6075 53.6303 25.2086 50.8206L24.8905 56.8248C24.8708 57.1712 24.8183 57.4452 24.7312 57.6475C24.6445 57.8495 24.4756 58.047 24.2248 58.239C23.5498 58.7584 22.6775 59.1823 21.6066 59.5091C20.5364 59.8359 19.3743 59.9999 18.1206 59.9999C15.9409 59.9999 14.0219 59.5712 12.3633 58.7153ZM38.8786 13.7732C38.7819 15.5248 38.7193 17.0738 38.6903 18.4205C38.6613 19.7678 38.6471 21.5863 38.6471 23.8763V25.8389C38.6471 28.5718 37.9476 30.6984 36.5495 32.2181C35.1512 33.7388 32.3466 34.4885 29.6272 34.4885C26.9078 34.4885 24.2967 33.7388 22.8983 32.2181C21.4996 30.6984 20.8008 28.5718 20.8008 25.8389V23.8763C20.8008 21.5863 20.7863 19.7678 20.7576 18.4205C20.7282 17.0738 20.6657 15.5248 20.5693 13.7732H26.1242C25.9308 17.1796 25.8347 20.5088 25.8347 23.7608V26.0698C25.8347 27.2058 25.9595 27.9076 26.5091 28.5715C27.059 29.2353 28.1631 29.6274 29.3094 29.7863C30.36 29.932 32.239 29.4328 32.7886 28.769C33.3382 28.1051 33.6129 27.2058 33.6129 26.0698V23.7608C33.6129 20.5088 33.5165 17.1796 33.3237 13.7732H38.8786ZM78.6416 33.9739C78.8344 30.3179 78.9308 26.9504 78.9308 23.8711C78.9308 20.7925 78.8344 17.4247 78.6416 13.7681H84.5436C86.5494 17.7135 88.5937 21.3698 90.6765 24.737V21.8507C90.6765 19.3876 90.5995 16.6936 90.4454 13.7681H96.0002C95.8068 17.4247 95.7108 20.7925 95.7108 23.8711C95.7108 26.9504 95.8068 30.3179 96.0002 33.9739H90.0982C87.9958 29.9522 85.9511 26.2959 83.965 23.0053V25.8916C83.965 28.355 84.0417 31.049 84.1965 33.9739H78.6416ZM69.7305 33.9739C69.9232 30.8377 70.0196 27.4699 70.0196 23.8711C70.0196 20.2727 69.9232 16.9053 69.7305 13.7681H75.285C75.0919 16.9053 74.9959 20.2727 74.9959 23.8711C74.9959 27.4699 75.0919 30.8377 75.285 33.9739H69.7305ZM50.6821 27.7388C49.833 26.0071 48.8305 24.1121 47.6732 22.0523C47.5765 23.9387 47.5285 25.5935 47.5285 27.0173C47.5285 28.9227 47.6155 31.2417 47.7889 33.9739H42.2344C42.4268 30.3179 42.5235 26.9504 42.5235 23.8711C42.5235 20.7925 42.4268 17.4247 42.2344 13.7681H49.1196C50.6821 17.5595 52.3019 20.9269 53.9801 23.8711C55.658 20.9269 57.2778 17.5595 58.8406 13.7681H65.7259C65.5328 17.4247 65.4367 20.7925 65.4367 23.8711C65.4367 26.9504 65.5328 30.3179 65.7259 33.9739H60.1713C60.3451 31.7804 60.4315 29.5483 60.4315 27.2772C60.4315 25.7762 60.3834 24.0349 60.287 22.0523C59.1298 24.1121 58.1266 26.0071 57.2778 27.7388C56.1593 29.9522 55.06 32.9666 53.9801 35.5071C52.8996 32.9666 51.8003 29.9522 50.6821 27.7388ZM5.23638 33.209C3.57752 32.3531 2.29003 31.1354 1.37421 29.5575C0.45807 27.9796 0 26.1225 0 23.9865C0 21.8699 0.472254 19.9935 1.41773 18.3576C2.36224 16.7222 3.65972 15.462 5.30891 14.5762C6.95776 13.6917 8.79488 13.2485 10.8199 13.2485C13.0764 13.2485 14.8123 13.6142 16.0273 14.3453C16.3171 14.5183 16.5195 14.7161 16.6349 14.9371C16.7507 15.1587 16.818 15.4421 16.8377 15.7885L17.1849 21.3887C15.8345 19.272 13.8672 18.2136 11.2828 18.2136C10.1259 18.2136 9.09886 18.4638 8.20174 18.9639C7.30494 19.4644 6.61059 20.1472 6.11867 21.0134C5.62675 21.8792 5.38111 22.8512 5.38111 23.9286C5.38111 25.6027 5.90623 26.9552 6.95776 27.9844C8.00897 29.0139 9.45055 29.5289 11.2828 29.5289C14.2144 29.5289 16.4805 28.1243 18.0817 25.3142L17.7635 31.3184C17.7438 31.6648 17.691 31.9389 17.6043 32.1412C17.5176 32.3428 17.3486 32.5406 17.0978 32.7326C16.4228 33.2521 15.5502 33.676 14.4797 34.0028C13.4094 34.3299 12.2473 34.4936 10.9937 34.4936C8.8139 34.4936 6.8949 34.0648 5.23638 33.209ZM53.8134 7.99768C53.8821 6.69508 53.9165 5.36224 53.9165 3.99852C53.9165 2.63545 53.8821 1.30261 53.8134 0H59.4704V1.64514H55.6686C55.6379 2.28487 55.6225 2.79916 55.6225 3.18769H59.1381V4.81H55.6225C55.6225 5.22908 55.6379 5.74305 55.6686 6.35254H59.6535V7.99768H53.8134ZM45.0459 7.99768C45.1146 6.69508 45.1491 5.36224 45.1491 3.99852C45.1491 2.63545 45.1146 1.30261 45.0459 0H46.9468C46.9159 0.403969 46.8911 0.911825 46.8724 1.52518C46.8534 2.13853 46.8437 2.68884 46.8437 3.17611H50.6417C50.6417 2.68884 50.632 2.13853 50.613 1.52518C50.594 0.911825 50.5692 0.403969 50.5385 0H52.4395C52.3708 1.30261 52.3363 2.63545 52.3363 3.99852C52.3363 5.36224 52.3708 6.69508 52.4395 7.99768H50.5385C50.5692 7.59404 50.594 7.08554 50.613 6.47219C50.632 5.85948 50.6417 5.30885 50.6417 4.82158H46.8437C46.8437 5.30885 46.8534 5.85948 46.8724 6.47219C46.8911 7.08554 46.9159 7.59404 46.9468 7.99768H45.0459ZM39.5833 7.99768C39.652 6.60373 39.6865 5.08049 39.6865 3.42762V1.69082H36.9951V0H44.0834V1.69082H41.3927V3.42762C41.3927 5.08049 41.4269 6.60373 41.4956 7.99768H39.5833Z"
        fill="#F7C144"></path>
</svg>