<svg width="21" height="22" viewBox="0 0 21 22" fill="none" xmlns="http://www.w3.org/2000/svg">
    <path
        d="M10.2353 21.3616C7.5207 21.3616 4.91732 20.2843 2.99784 18.3665C1.07835 16.4488 0 13.8478 0 11.1357C0 8.42361 1.07835 5.8226 2.99784 3.90487C4.91732 1.98713 7.5207 0.90976 10.2353 0.90976C12.9498 0.90976 15.5532 1.98713 17.4727 3.90487C19.3922 5.8226 20.4705 8.42361 20.4705 11.1357C20.4705 13.8478 19.3922 16.4488 17.4727 18.3665C15.5532 20.2843 12.9498 21.3616 10.2353 21.3616ZM10.2353 19.3164C12.4069 19.3164 14.4896 18.4545 16.0252 16.9204C17.5608 15.3862 18.4235 13.3054 18.4235 11.1357C18.4235 8.96602 17.5608 6.88522 16.0252 5.35103C14.4896 3.81684 12.4069 2.95495 10.2353 2.95495C8.06361 2.95495 5.98091 3.81684 4.44532 5.35103C2.90974 6.88522 2.04705 8.96602 2.04705 11.1357C2.04705 13.3054 2.90974 15.3862 4.44532 16.9204C5.98091 18.4545 8.06361 19.3164 10.2353 19.3164ZM15.3529 10.1131V12.1583H5.11763V10.1131H15.3529Z"
        fill="#333333" />
</svg>