<svg width="18" height="19" viewBox="0 0 18 19" fill="none" xmlns="http://www.w3.org/2000/svg">
<path d="M9 18.0939C6.61305 18.0939 4.32387 17.1466 2.63604 15.4603C0.948211 13.774 0 11.4869 0 9.1021C0 6.71733 0.948211 4.43023 2.63604 2.74394C4.32387 1.05765 6.61305 0.110306 9 0.110306C11.3869 0.110306 13.6761 1.05765 15.364 2.74394C17.0518 4.43023 18 6.71733 18 9.1021C18 11.4869 17.0518 13.774 15.364 15.4603C13.6761 17.1466 11.3869 18.0939 9 18.0939ZM9 16.2955C10.9096 16.2955 12.7409 15.5377 14.0912 14.1886C15.4414 12.8396 16.2 11.0099 16.2 9.1021C16.2 7.19428 15.4414 5.3646 14.0912 4.01557C12.7409 2.66654 10.9096 1.90866 9 1.90866C7.09044 1.90866 5.25909 2.66654 3.90883 4.01557C2.55857 5.3646 1.8 7.19428 1.8 9.1021C1.8 11.0099 2.55857 12.8396 3.90883 14.1886C5.25909 15.5377 7.09044 16.2955 9 16.2955ZM13.5 8.20292V10.0013H4.5V8.20292H13.5Z" fill="#333333"/>
</svg>
