<svg width="21" height="22" viewBox="0 0 21 22" fill="none" xmlns="http://www.w3.org/2000/svg">
    <path
        d="M10.7636 0.90979C5.12002 0.90979 0.52832 5.4973 0.52832 11.1357C0.52832 16.7741 5.12002 21.3617 10.7636 21.3617C16.4071 21.3617 20.9988 16.7741 20.9988 11.1357C20.9988 5.4973 16.4071 0.90979 10.7636 0.90979ZM10.7636 2.48301C15.556 2.48301 19.4242 6.34763 19.4242 11.1357C19.4242 15.9238 15.556 19.7884 10.7636 19.7884C5.97112 19.7884 2.10298 15.9238 2.10298 11.1357C2.10298 6.34763 5.97112 2.48301 10.7636 2.48301ZM9.97625 6.41606V10.3491H6.03961V11.9223H9.97625V15.8554H11.5509V11.9223H15.4875V10.3491H11.5509V6.41606H9.97625Z"
        fill="#333333" />
</svg>