<svg width="18" height="19" viewBox="0 0 18 19" fill="none" xmlns="http://www.w3.org/2000/svg">
<path d="M9 0.110306C4.03754 0.110306 0 4.14416 0 9.1021C0 14.06 4.03754 18.0939 9 18.0939C13.9625 18.0939 18 14.06 18 9.1021C18 4.14416 13.9625 0.110306 9 0.110306ZM9 1.49366C13.2141 1.49366 16.6154 4.89187 16.6154 9.1021C16.6154 13.3123 13.2141 16.7105 9 16.7105C4.78592 16.7105 1.38462 13.3123 1.38462 9.1021C1.38462 4.89187 4.78592 1.49366 9 1.49366ZM8.30769 4.95204V8.41042H4.84615V9.79378H8.30769V13.2522H9.69231V9.79378H13.1538V8.41042H9.69231V4.95204H8.30769Z" fill="#333333"/>
</svg>
