<svg width="20" height="12" viewBox="0 0 20 12" fill="none" xmlns="http://www.w3.org/2000/svg">
<path d="M1.58985 9.17006L1.72761 9.10402L1.89323 9.02594L1.99828 8.97658C2.01663 8.96775 2.03699 8.95881 2.05535 8.94933L2.10664 8.9196C2.18285 8.87508 2.25937 8.83113 2.33622 8.78774C2.41652 8.74314 2.51216 8.68525 2.61135 8.62596C2.71065 8.56634 2.81566 8.50532 2.92372 8.43324L3.08992 8.32712L3.17532 8.27252L3.26136 8.21319C3.49336 8.05613 3.73646 7.87707 3.98575 7.68242L4.17366 7.53377C4.2367 7.48366 4.29884 7.42841 4.36233 7.37622C4.42541 7.32259 4.48959 7.27165 4.55259 7.21508L4.7425 7.04579C4.80626 6.9902 4.86912 6.93054 4.93238 6.87126L5.12222 6.69314L5.31006 6.50702C5.34134 6.47592 5.37261 6.44482 5.40389 6.41373L5.49688 6.31742C5.74644 6.06568 5.98712 5.79197 6.22421 5.52173C6.34161 5.38339 6.45821 5.24704 6.57118 5.10538C6.68559 4.96779 6.79642 4.82393 6.90637 4.6854C7.01481 4.54185 7.12242 4.40358 7.22596 4.26037C7.33085 4.12085 7.43226 3.97858 7.53157 3.84001C7.58124 3.77084 7.62966 3.69967 7.67786 3.63087C7.72593 3.56245 7.7733 3.49354 7.81995 3.42415L7.95857 3.22135L8.09263 3.02058C8.18067 2.88911 8.26536 2.75744 8.34725 2.6317C8.42913 2.50373 8.50694 2.38116 8.58532 2.26316C8.74105 2.02998 8.89422 1.81873 9.03869 1.63834C9.1066 1.55279 9.17654 1.46887 9.24844 1.38664C9.31609 1.3086 9.38083 1.23965 9.43964 1.1775C9.5607 1.05089 9.66162 0.957601 9.7363 0.892655C9.80958 0.828766 9.85215 0.798124 9.85215 0.798124C11.6658 -0.507057 14.1951 -0.0962119 15.5014 1.71582C16.5325 3.14595 16.4936 5.02141 15.5398 6.39007L15.5187 6.41822C15.5187 6.41822 15.4896 6.45984 15.4285 6.53139C15.3688 6.60192 15.2726 6.70732 15.1428 6.83356C15.0759 6.8976 15.0015 6.96832 14.9177 7.04236C14.8252 7.12396 14.7309 7.20348 14.6349 7.28086C14.426 7.44871 14.1804 7.63034 13.8935 7.81778C13.6076 8.00405 13.2837 8.197 12.9404 8.40109C12.5979 8.60525 12.2254 8.81337 11.8371 9.02152C11.4481 9.23014 11.0374 9.43596 10.6151 9.63434C10.1905 9.83182 9.75394 10.0213 9.3094 10.1953C9.19922 10.2396 9.08583 10.2806 8.97475 10.3229C8.8634 10.365 8.75201 10.406 8.63858 10.4444L8.30196 10.5599L7.96405 10.6675L7.79653 10.72L7.62743 10.7683L7.293 10.8623L6.95963 10.947L6.79532 10.988C6.74078 11.0014 6.68503 11.0125 6.63045 11.0248L6.30565 11.0948C6.1989 11.1179 6.0905 11.1359 5.98531 11.1559C5.87951 11.175 5.77598 11.1947 5.67207 11.2107L5.36468 11.2558C4.96162 11.3147 4.57699 11.3464 4.22511 11.3686C3.87236 11.3887 3.55122 11.3976 3.2659 11.3897C3.12357 11.3875 2.9939 11.3862 2.86272 11.3797C2.74619 11.3751 2.62971 11.3693 2.51329 11.3623L2.43703 11.3578C2.41392 11.3556 2.39375 11.3525 2.37297 11.35L2.25781 11.3354L2.07616 11.312L1.92477 11.2915C1.31068 11.2085 0.880236 10.6438 0.963409 10.0302C1.01553 9.64502 1.2646 9.32893 1.58985 9.17006Z" fill="#FF473E"/>
<path d="M11.6077 2.6206L11.4741 2.70117L11.4037 2.74362C11.3894 2.75193 11.3809 2.75811 11.3708 2.76498L11.3395 2.78623L11.2699 2.83257L11.2316 2.85751L11.1889 2.8902C11.131 2.93631 11.0653 2.9811 11.0004 3.03967L10.8986 3.12654C10.864 3.15681 10.8298 3.19043 10.7943 3.22323C10.7226 3.28779 10.6517 3.3621 10.5782 3.43561C10.5415 3.47248 10.5057 3.5126 10.4689 3.55135C10.4324 3.59041 10.3955 3.62943 10.3593 3.67075L10.2501 3.79291L10.1419 3.91763L9.92959 4.16519C9.85956 4.24704 9.79217 4.32602 9.72502 4.40225C9.66009 4.4778 9.59278 4.55029 9.53268 4.61649C9.47519 4.67761 9.41673 4.7378 9.35731 4.79706C9.3002 4.85034 9.25261 4.89657 9.2097 4.93401L9.06888 5.04963C8.99981 5.10649 8.91189 5.13537 8.82252 5.13057C8.73316 5.12577 8.64884 5.08764 8.58626 5.02372C8.52368 4.95981 8.48738 4.87475 8.48455 4.78538C8.48172 4.69601 8.51257 4.60883 8.57098 4.54109L8.59746 4.51044L8.68214 4.4121C8.70885 4.37934 8.74065 4.33531 8.7774 4.28776C8.81843 4.22999 8.85863 4.17164 8.89801 4.11273C8.94148 4.04469 8.98866 3.97352 9.03799 3.89193C9.08728 3.81264 9.13967 3.72543 9.1938 3.63554L9.36407 3.35338L9.45382 3.20662L9.54775 3.05782C9.57858 3.00809 9.61174 2.95842 9.64464 2.90887C9.67788 2.8594 9.70934 2.80978 9.74375 2.76106C9.8128 2.6637 9.87875 2.56697 9.9507 2.4755C9.98613 2.42961 10.0196 2.38387 10.0552 2.34014L10.1616 2.21255C10.2289 2.12851 10.3035 2.05409 10.3681 1.98303L10.4167 1.93118L10.47 1.88035L10.5694 1.78672L10.6151 1.74423C10.6298 1.7306 10.6449 1.71645 10.6553 1.708L10.7177 1.65453L10.8361 1.55305C11.1134 1.31549 11.5309 1.3475 11.7687 1.62449C12.0064 1.90148 11.9744 2.31863 11.6972 2.55614C11.6703 2.57914 11.6417 2.59996 11.6116 2.61841L11.6077 2.6206Z" fill="#FF6E83"/>
<path d="M19.7082 1.25587L19.6975 1.24353L19.5033 1.01911C19.4723 0.983559 19.4331 0.946954 19.3931 0.905707C19.3519 0.865177 19.3096 0.819817 19.26 0.774457L19.0971 0.633584C19.0825 0.621432 19.0687 0.608337 19.0529 0.596563L19.0045 0.561053L18.9044 0.487955C18.767 0.38965 18.6048 0.296062 18.4234 0.21387C18.4014 0.202511 18.3778 0.193529 18.3538 0.184925L18.2818 0.158283L18.2089 0.131678C18.1845 0.122054 18.1594 0.114111 18.1339 0.107904L17.9785 0.067638C17.9654 0.0644303 17.9524 0.0607696 17.9391 0.0579393L17.8988 0.0513732L17.8175 0.0385047C17.7631 0.0299383 17.7084 0.0206173 17.6526 0.0190323C17.597 0.0159001 17.5409 0.011749 17.4846 0.0102017L17.3156 0.0156738L17.2731 0.0173342L17.2312 0.0222022L17.147 0.0322403C16.9232 0.0613357 16.7022 0.116319 16.4966 0.195303C16.2906 0.273306 16.0929 0.365158 15.9114 0.470332C15.8125 0.527137 15.7151 0.586672 15.6195 0.648867C14.9358 0.0331838 13.9812 -0.151465 13.1318 0.125414C13.1296 0.134584 13.132 0.141792 13.1289 0.151226C13.0489 0.396141 12.9829 0.651282 14.0432 1.80404C15.1036 2.9568 16.0736 3.96159 16.2458 3.52875C16.5303 2.81336 16.5194 1.99692 16.141 1.30572C16.2016 1.27617 16.2628 1.24775 16.3245 1.22047C16.4837 1.14938 16.6462 1.09658 16.8042 1.05635C16.9625 1.01496 17.1163 0.998616 17.2589 0.998126L17.312 0.998352L17.3383 0.998238L17.364 1.00114C17.398 1.00488 17.4315 1.00813 17.4647 1.01084L17.5604 1.02967C17.5921 1.03375 17.6221 1.04454 17.6518 1.05371L17.696 1.06681L17.7179 1.073C17.7251 1.07568 17.7321 1.07907 17.7391 1.08202C17.7672 1.0942 17.7949 1.10564 17.8222 1.11643C17.829 1.11926 17.8359 1.12145 17.8426 1.12473L17.8623 1.13572L17.9013 1.15692L17.9397 1.17711C17.9525 1.18334 17.9651 1.18987 17.9772 1.199C18.0752 1.26191 18.1651 1.32923 18.2448 1.40395L18.303 1.45905L18.3312 1.4852C18.3405 1.49388 18.349 1.50479 18.3577 1.51418L18.4563 1.62305C18.4868 1.65845 18.5135 1.69619 18.5393 1.72811C18.5645 1.76136 18.5889 1.78891 18.6089 1.81846L18.7345 2.00303C18.7477 2.0222 18.7622 2.0413 18.7778 2.05926C18.9998 2.31591 19.388 2.34414 19.645 2.12232C19.902 1.90046 19.9302 1.51256 19.7082 1.25587ZM16.0114 1.09507C16.0151 1.10058 16.019 1.10605 16.0227 1.11156C16.019 1.10602 16.0151 1.10054 16.0114 1.09507ZM15.9428 0.999937C15.9483 1.00722 15.9537 1.01458 15.9591 1.02194C15.9536 1.01462 15.9483 1.00722 15.9428 0.999937Z" fill="#00B89C"/>
</svg>
