<svg width="23" height="14" viewBox="0 0 23 14" fill="none" xmlns="http://www.w3.org/2000/svg">
<path d="M1.36928 10.7567L1.53072 10.6793L1.72483 10.5877L1.84794 10.5298C1.86945 10.5194 1.89331 10.5089 1.91483 10.4978L1.97494 10.4629C2.06425 10.4107 2.15394 10.3591 2.244 10.3082C2.33811 10.2559 2.4502 10.188 2.56644 10.1185C2.68282 10.0485 2.80589 9.97695 2.93254 9.8924L3.12731 9.76792L3.2274 9.70386L3.32824 9.63428C3.60013 9.45004 3.88504 9.23999 4.1772 9.01165L4.39744 8.83729C4.47132 8.7785 4.54414 8.71369 4.61855 8.65247C4.69248 8.58956 4.76769 8.5298 4.84153 8.46345L5.0641 8.26486C5.13883 8.19966 5.21249 8.12967 5.28664 8.06013L5.50912 7.85118L5.72927 7.63286C5.76592 7.59638 5.80257 7.5599 5.83923 7.52343L5.94821 7.41046C6.24069 7.11515 6.52276 6.79408 6.80063 6.47708C6.93821 6.31479 7.07486 6.15485 7.20727 5.98867C7.34135 5.82727 7.47123 5.65853 7.6001 5.49602C7.72719 5.32763 7.85331 5.16543 7.97464 4.99744C8.09758 4.83378 8.21643 4.66689 8.33281 4.50434C8.39102 4.4232 8.44778 4.33971 8.50426 4.25901C8.56061 4.17876 8.61612 4.09792 8.67079 4.01651L8.83326 3.77862L8.99036 3.54312C9.09355 3.38889 9.1928 3.23444 9.28877 3.08694C9.38474 2.93683 9.47593 2.79305 9.56779 2.65463C9.7503 2.3811 9.92981 2.13329 10.0991 1.92169C10.1787 1.82134 10.2607 1.72289 10.3449 1.62643C10.4242 1.53488 10.5001 1.454 10.569 1.3811C10.7109 1.23258 10.8292 1.12315 10.9167 1.04696C11.0026 0.97202 11.0525 0.936075 11.0525 0.936075C13.178 -0.594959 16.1423 -0.11302 17.6733 2.01257C18.8817 3.69017 18.8361 5.89018 17.7182 7.49567L17.6936 7.52869C17.6936 7.52869 17.6594 7.57752 17.5879 7.66145C17.5179 7.74419 17.4052 7.86783 17.253 8.0159C17.1746 8.09102 17.0874 8.17398 16.9891 8.26083C16.8808 8.35656 16.7703 8.44983 16.6577 8.5406C16.4129 8.7375 16.1251 8.95057 15.7888 9.17044C15.4537 9.38895 15.0742 9.61529 14.6718 9.85468C14.2705 10.0942 13.8338 10.3383 13.3788 10.5825C12.9229 10.8272 12.4415 11.0686 11.9466 11.3013C11.449 11.533 10.9374 11.7553 10.4164 11.9594C10.2873 12.0114 10.1544 12.0595 10.0242 12.109C9.89368 12.1585 9.76314 12.2065 9.6302 12.2515L9.23569 12.3871L8.83967 12.5133L8.64335 12.5748L8.44516 12.6315L8.05322 12.7418L7.66251 12.8411L7.46995 12.8892C7.40603 12.9049 7.34069 12.918 7.27672 12.9324L6.89607 13.0145C6.77097 13.0417 6.64392 13.0627 6.52064 13.0862C6.39664 13.1087 6.2753 13.1318 6.15352 13.1504L5.79328 13.2034C5.3209 13.2724 4.87012 13.3096 4.45773 13.3357C4.04431 13.3593 3.66795 13.3697 3.33356 13.3605C3.16676 13.3579 3.01479 13.3564 2.86104 13.3487C2.72447 13.3433 2.58796 13.3365 2.45153 13.3283L2.36215 13.323C2.33506 13.3205 2.31142 13.3168 2.28707 13.3139L2.1521 13.2967L1.93922 13.2693L1.76179 13.2453C1.04209 13.1479 0.537622 12.4855 0.635099 11.7658C0.696188 11.3139 0.988088 10.9431 1.36928 10.7567Z" fill="#FF473E"/>
<path d="M13.1097 3.07402L12.9531 3.16853L12.8706 3.21833C12.8538 3.22807 12.8439 3.23533 12.8321 3.24339L12.7954 3.26831L12.7138 3.32267L12.6689 3.35193L12.6189 3.39027C12.551 3.44436 12.474 3.49691 12.3979 3.56561L12.2786 3.66751C12.2381 3.70302 12.198 3.74246 12.1563 3.78093C12.0724 3.85667 11.9892 3.94383 11.9031 4.03006C11.8601 4.07331 11.8181 4.12037 11.7751 4.16583C11.7322 4.21165 11.689 4.25742 11.6466 4.3059L11.5186 4.44919L11.3918 4.59549L11.143 4.88589C11.0609 4.9819 10.9819 5.07456 10.9032 5.16398C10.8271 5.2526 10.7482 5.33764 10.6778 5.41528C10.6104 5.48698 10.5419 5.55759 10.4723 5.6271C10.4053 5.68961 10.3496 5.74384 10.2993 5.78775L10.1342 5.92338C10.0533 5.99007 9.95026 6.02396 9.84552 6.01833C9.74078 6.0127 9.64197 5.96797 9.56863 5.89299C9.49528 5.81801 9.45274 5.71824 9.44943 5.6134C9.44611 5.50857 9.48226 5.4063 9.55072 5.32684L9.58175 5.29089L9.68099 5.17553C9.71229 5.13711 9.74957 5.08545 9.79264 5.02967C9.84072 4.9619 9.88784 4.89346 9.93398 4.82436C9.98494 4.74454 10.0402 4.66105 10.098 4.56535C10.1558 4.47234 10.2172 4.37004 10.2806 4.26459L10.4802 3.93361L10.5854 3.76145L10.6955 3.5869C10.7316 3.52856 10.7705 3.4703 10.809 3.41218C10.848 3.35415 10.8848 3.29593 10.9252 3.23878C11.0061 3.12457 11.0834 3.01112 11.1677 2.90381C11.2092 2.84998 11.2485 2.79633 11.2902 2.74503L11.4149 2.59536C11.4938 2.49677 11.5812 2.40948 11.6569 2.32612L11.7139 2.2653L11.7764 2.20567L11.8929 2.09584L11.9464 2.046C11.9636 2.03002 11.9814 2.01342 11.9934 2.0035L12.0666 1.94077L12.2054 1.82174C12.5304 1.54308 13.0197 1.58061 13.2983 1.90554C13.5769 2.23046 13.5394 2.71979 13.2145 2.99841C13.1831 3.02539 13.1496 3.04981 13.1142 3.07145L13.1097 3.07402Z" fill="#FF6E83"/>
<path d="M22.6033 1.47319L22.5908 1.45872L22.3633 1.19546C22.3269 1.15376 22.281 1.11082 22.2341 1.06243C22.1858 1.01489 22.1363 0.961681 22.0781 0.908472L21.8872 0.743221C21.87 0.728967 21.8539 0.713606 21.8353 0.699795L21.7787 0.658139L21.6614 0.572393C21.5003 0.457076 21.3102 0.347293 21.0976 0.250879C21.0718 0.237554 21.0442 0.227019 21.0161 0.216926L20.9317 0.185673L20.8462 0.154464C20.8176 0.143175 20.7883 0.133857 20.7584 0.126576L20.5762 0.0793423C20.5609 0.0755795 20.5456 0.0712854 20.5301 0.0679654L20.4828 0.060263L20.3876 0.0451677C20.3238 0.035119 20.2596 0.024185 20.1943 0.0223257C20.1291 0.0186515 20.0634 0.013782 19.9974 0.0119671L19.7993 0.0183861L19.7495 0.0203338L19.7004 0.0260442L19.6018 0.0378193C19.3394 0.0719495 19.0805 0.136447 18.8395 0.229099C18.598 0.3206 18.3663 0.428347 18.1537 0.55172C18.0377 0.618355 17.9236 0.688192 17.8115 0.76115C17.0102 0.0389261 15.8915 -0.177675 14.896 0.147116C14.8934 0.157873 14.8962 0.166328 14.8926 0.177395C14.7989 0.46469 14.7215 0.763982 15.9642 2.11622C17.2069 3.46846 18.3437 4.64712 18.5455 4.13938C18.879 3.3002 18.8662 2.34247 18.4227 1.53167C18.4938 1.497 18.5654 1.46367 18.6377 1.43167C18.8243 1.34827 19.0148 1.28634 19.1999 1.23915C19.3854 1.19059 19.5658 1.17142 19.7329 1.17084L19.7951 1.17111L19.826 1.17098L19.856 1.17439C19.8959 1.17877 19.9352 1.18258 19.974 1.18576L20.0862 1.20785C20.1234 1.21263 20.1585 1.22529 20.1933 1.23605L20.2452 1.25141L20.2708 1.25867C20.2793 1.26181 20.2874 1.2658 20.2957 1.26925C20.3286 1.28355 20.361 1.29696 20.3931 1.30962C20.401 1.31294 20.4091 1.31551 20.4169 1.31936L20.44 1.33224L20.4857 1.35712L20.5308 1.38081C20.5457 1.38811 20.5606 1.39577 20.5747 1.40648C20.6896 1.48027 20.795 1.55925 20.8883 1.6469L20.9565 1.71153L20.9896 1.7422C21.0005 1.75239 21.0104 1.76518 21.0207 1.7762L21.1362 1.90391C21.1719 1.94544 21.2033 1.9897 21.2334 2.02715C21.263 2.06615 21.2916 2.09847 21.315 2.13313L21.4623 2.34964C21.4777 2.37213 21.4947 2.39453 21.5129 2.4156C21.7731 2.71666 22.2282 2.74978 22.5293 2.48957C22.8305 2.22932 22.8636 1.7743 22.6033 1.47319ZM18.2708 1.28457C18.2752 1.29103 18.2797 1.29745 18.2841 1.30391C18.2797 1.29741 18.2752 1.29099 18.2708 1.28457ZM18.1904 1.17297C18.1969 1.18151 18.2032 1.19015 18.2095 1.19878C18.2032 1.19019 18.1969 1.18151 18.1904 1.17297Z" fill="#00B89C"/>
</svg>
