<svg width="18" height="10" viewBox="0 0 20 12" fill="none" xmlns="http://www.w3.org/2000/svg">
<path d="M1.984 9.80896C1.90975 9.85089 1.8358 9.89337 1.76216 9.93639L1.76074 9.93722L1.70944 9.96695L1.69884 9.9731L1.68794 9.97872C1.66971 9.98813 1.65276 9.99611 1.64185 10.0012L1.61835 10.0122L1.61425 10.0142L1.61424 10.0142L1.50976 10.0633L1.5092 10.0635L1.34707 10.1399L1.34413 10.1413L1.21262 10.2044C1.21215 10.2046 1.21167 10.2048 1.2112 10.2051C1.02684 10.2957 0.890431 10.4738 0.862214 10.6823L0.862197 10.6825C0.816187 11.0219 1.05429 11.335 1.39511 11.3811L1.39516 11.3811L1.54326 11.4012L1.54655 11.4016L1.72419 11.4244L1.7249 11.4245L1.83581 11.4386L1.83935 11.4391L1.85674 11.4413L1.87165 11.4432L1.88178 11.4444L1.94601 11.4482L1.94673 11.4483C2.0596 11.4551 2.17255 11.4607 2.28554 11.4651L2.29104 11.4653L2.29104 11.4653C2.3964 11.4706 2.50057 11.4722 2.62339 11.474C2.64088 11.4743 2.65874 11.4746 2.67704 11.4748L2.68297 11.4749L2.68297 11.475C2.9486 11.4823 3.25393 11.4742 3.59839 11.4546C3.94333 11.4327 4.31234 11.4021 4.69578 11.3461L4.99964 11.3015C5.00014 11.3014 5.00064 11.3013 5.00114 11.3013C5.07567 11.2898 5.14888 11.2764 5.23098 11.2614C5.25248 11.2575 5.27459 11.2535 5.29749 11.2493C5.33935 11.2414 5.37712 11.2345 5.41273 11.228C5.47955 11.2159 5.53875 11.2051 5.60307 11.1912L5.60357 11.1911L5.92641 11.1215C5.95346 11.1154 5.97526 11.1107 5.99468 11.1066C6.02477 11.1001 6.04914 11.0949 6.07845 11.0877C6.07876 11.0876 6.07907 11.0875 6.07937 11.0875L6.2398 11.0474L6.24194 11.0469L6.56709 10.9643L6.89342 10.8726L6.89545 10.872L7.05648 10.826L7.21568 10.7761L7.21796 10.7754L7.54824 10.6702L7.87956 10.5565L7.88165 10.5558C7.98712 10.5201 8.09235 10.4814 8.20119 10.4403L8.37807 10.9079M1.984 9.80896L13.0233 7.98424C12.7477 8.1638 12.4331 8.35133 12.0882 8.55633L12.0877 8.55666C11.7535 8.7559 11.3878 8.96023 11.0042 9.16591L11.0041 9.16595C10.6238 9.36993 10.2213 9.57165 9.80669 9.76643C9.39013 9.96014 8.96354 10.1453 8.53051 10.3147L8.5305 10.3147L8.52605 10.3165C8.45671 10.3444 8.38989 10.3694 8.31721 10.3966C8.28013 10.4105 8.24152 10.4249 8.20026 10.4406L8.37807 10.9079M1.984 9.80896C2.05958 9.76693 2.1465 9.71486 2.22841 9.6658C2.24286 9.65715 2.25715 9.64859 2.27119 9.6402L2.27206 9.63968C2.2877 9.63029 2.30416 9.62047 2.32131 9.61024C2.40347 9.56123 2.5014 9.50281 2.6002 9.43711L2.76232 9.33359L2.76258 9.33342L2.84799 9.27882L2.8553 9.27414L2.86245 9.26921L2.94674 9.2111C3.18961 9.0466 3.4414 8.86097 3.69678 8.66157L3.69679 8.66158L3.69927 8.65961L3.88718 8.51097L3.88813 8.51022C3.92704 8.47928 3.98326 8.43173 4.02745 8.39435C4.05084 8.37457 4.07085 8.35764 4.08315 8.34753L4.08319 8.34758L4.0895 8.34222C4.10293 8.3308 4.12029 8.31637 4.13985 8.30012C4.18498 8.2626 4.24183 8.21534 4.28919 8.17286C4.28944 8.17263 4.2897 8.1724 4.28995 8.17217L4.47656 8.00584C4.53852 7.95173 4.59964 7.89434 4.65317 7.84407C4.6615 7.83625 4.66965 7.8286 4.67759 7.82116L4.67782 7.82094L4.86766 7.64282L4.86779 7.64295L4.87747 7.63336L5.06531 7.44724L5.06591 7.44664L5.15974 7.35335L5.15982 7.35342L5.16689 7.3461L5.25765 7.2521C5.51879 6.98849 5.76848 6.70428 6.00338 6.43654L6.00343 6.43658L6.00877 6.43029C6.02048 6.41649 6.03227 6.40262 6.04411 6.38867C6.14788 6.26649 6.25645 6.13865 6.36223 6.00617C6.44811 5.90275 6.53396 5.79366 6.61397 5.692C6.64401 5.65382 6.67324 5.61668 6.70133 5.58129L6.70144 5.58138L6.70865 5.57184C6.73735 5.53384 6.76706 5.49484 6.79733 5.45511C6.87439 5.35396 6.95505 5.24808 7.03173 5.14216C7.12995 5.0114 7.22501 4.87868 7.31444 4.75381C7.32345 4.74123 7.33241 4.72872 7.34131 4.71631C7.37566 4.66846 7.41199 4.61607 7.44495 4.56854C7.46115 4.54519 7.47653 4.52301 7.49046 4.50312C7.54009 4.4325 7.58899 4.36137 7.63716 4.28974L7.77468 4.08855L7.7747 4.08857L7.77772 4.08405L7.9114 3.88385C7.91142 3.88381 7.91144 3.88378 7.91147 3.88374C7.98125 3.77954 8.04952 3.67438 8.11376 3.57546C8.13273 3.54624 8.15135 3.51756 8.16955 3.48962L8.16956 3.48963L8.17172 3.48626C8.18458 3.46616 8.19723 3.44637 8.20971 3.42685C8.27799 3.32001 8.34111 3.22127 8.40469 3.12553C8.55406 2.90189 8.69865 2.7028 8.83227 2.53597L8.83363 2.53426C8.89662 2.45492 8.96148 2.37708 9.02817 2.30081L9.02957 2.29919C9.08929 2.2303 9.14736 2.16833 9.20518 2.10722C9.31458 1.99286 9.40403 1.91039 9.46774 1.85498L9.46821 1.85458C9.49854 1.82813 9.52129 1.80963 9.53501 1.79879L9.54862 1.78825C9.54894 1.78801 9.5492 1.78781 9.54941 1.78765C11.139 0.645236 13.3547 1.00585 14.4992 2.59327C15.4006 3.84356 15.3692 5.48333 14.5375 6.68265L14.5215 6.70396L14.5169 6.71023L14.5142 6.71399C14.5144 6.71379 14.514 6.71428 14.5136 6.71484L1.984 9.80896ZM8.37807 10.9079C8.4136 10.8944 8.44938 10.881 8.48521 10.8676C8.56137 10.8391 8.63779 10.8105 8.71272 10.7804L7.70528 11.145L8.0419 11.0294C8.15533 10.991 8.26672 10.9501 8.37807 10.9079ZM14.4503 6.79336L14.4516 6.79182C14.4765 6.76261 14.4938 6.74079 14.5038 6.72778L14.5135 6.71506L14.4503 6.79336ZM14.4503 6.79336C14.4019 6.85041 14.3174 6.94356 14.1989 7.05882M14.4503 6.79336L14.1989 7.05882M14.1989 7.05882C14.1332 7.12174 14.0654 7.18608 13.9902 7.25251C13.9034 7.3291 13.8149 7.40374 13.7247 7.47637C13.528 7.63444 13.2959 7.80615 13.0239 7.98389L14.1989 7.05882ZM2.32704 9.01829L2.49324 8.91217L1.50996 9.50465C1.58617 9.46014 1.66269 9.41618 1.73954 9.37279C1.80771 9.33493 1.88693 9.28749 1.96999 9.23775C1.98478 9.2289 1.99968 9.21997 2.01467 9.21101C2.03241 9.20036 2.05033 9.18967 2.06842 9.17887C2.15159 9.12923 2.23828 9.07749 2.32704 9.01829ZM9.54764 1.78893C9.54774 1.78886 9.54783 1.78879 9.54793 1.78872L9.54784 1.78878L9.54771 1.78888L9.54764 1.78893Z" fill="#C3BDBD" stroke="black"/>
<path d="M11.011 3.20574L10.8774 3.28631L10.807 3.32876C10.7927 3.33706 10.7842 3.34325 10.7742 3.35012L10.7429 3.37137L10.6732 3.41771L10.6349 3.44265L10.5923 3.47533C10.5344 3.52145 10.4686 3.56624 10.4037 3.62481L10.3019 3.71168C10.2673 3.74195 10.2332 3.77557 10.1976 3.80836C10.126 3.87293 10.055 3.94724 9.98152 4.02075C9.94481 4.05762 9.909 4.09773 9.87225 4.13649C9.83569 4.17555 9.79882 4.21457 9.7626 4.25589L9.6534 4.37804L9.54519 4.50277L9.33291 4.75032C9.26288 4.83217 9.1955 4.91116 9.12834 4.98739C9.06341 5.06294 8.9961 5.13543 8.936 5.20162C8.87851 5.26274 8.82005 5.32294 8.76063 5.3822C8.70352 5.43548 8.65593 5.48171 8.61302 5.51914L8.47221 5.63477C8.40313 5.69162 8.31521 5.72051 8.22584 5.71571C8.13648 5.71091 8.05216 5.67278 7.98958 5.60886C7.927 5.54494 7.8907 5.45989 7.88787 5.37052C7.88504 5.28114 7.91589 5.19397 7.9743 5.12622L8.00078 5.09558L8.08546 4.99724C8.11217 4.96448 8.14397 4.92044 8.18072 4.87289C8.22175 4.81512 8.26195 4.75678 8.30133 4.69787C8.3448 4.62983 8.39198 4.55866 8.44131 4.47707C8.4906 4.39778 8.54299 4.31057 8.59712 4.22068L8.76739 3.93852L8.85714 3.79176L8.95107 3.64296C8.9819 3.59322 9.01506 3.54356 9.04796 3.49401C9.0812 3.44454 9.11266 3.39491 9.14707 3.34619C9.21612 3.24883 9.28207 3.15211 9.35402 3.06064C9.38945 3.01475 9.42296 2.96901 9.4585 2.92527L9.56494 2.79768C9.63225 2.71364 9.70681 2.63922 9.7714 2.56817L9.82005 2.51631L9.87335 2.46548L9.97276 2.37186L10.0185 2.32936C10.0332 2.31574 10.0483 2.30159 10.0586 2.29314L10.121 2.23966L10.2395 2.13819C10.5167 1.90063 10.9342 1.93263 11.172 2.20962C11.4097 2.48662 11.3777 2.90376 11.1005 3.14128C11.0737 3.16428 11.0451 3.1851 11.0149 3.20355L11.011 3.20574Z" fill="#FF6E83"/>
<path d="M14.7972 1.70376L14.7936 1.70727C14.7912 1.70484 14.7898 1.70326 14.7919 1.70552L14.7959 1.70992L14.8033 1.71778L14.8079 1.71341M14.7972 1.70376L14.8079 1.71341M14.7972 1.70376L15.1232 1.3885L15.3693 1.15055L15.3696 1.15023L15.5124 1.01213C15.5189 1.01882 15.5244 1.0248 15.5267 1.02727L15.5269 1.02747L15.5292 1.02993C15.5294 1.03023 15.529 1.02975 15.5281 1.02886L15.3806 1.16912L15.3802 1.16951L15.1334 1.40409L14.8079 1.71341M14.7972 1.70376L14.6882 1.60563C14.2381 1.20029 13.6395 1.02707 13.0606 1.10231M14.8079 1.71341L14.9444 1.83629M14.9444 1.83629L14.854 1.67121L15.198 1.5035L15.3252 1.44149C15.3803 1.41465 15.4357 1.38867 15.4916 1.36355C15.492 1.36335 15.4925 1.36315 15.4929 1.36295C15.5035 1.35818 15.5141 1.35345 15.5248 1.34875M14.9444 1.83629L14.9735 1.86254L15.0158 1.83504M14.9444 1.83629L14.9649 1.87374M13.0606 1.10231C13.0432 1.071 13.0294 1.04346 13.0186 1.01925C12.9986 0.974251 12.9935 0.950417 12.9924 0.94227C12.9935 0.937212 12.9972 0.923296 13.0075 0.891681L13.0075 0.891682L13.0078 0.890671C13.0329 0.813455 13.0337 0.747993 13.0339 0.732295C13.0339 0.731768 13.0339 0.731296 13.0339 0.730882C13.034 0.726664 13.034 0.728219 13.0339 0.729551C13.0339 0.730046 13.0339 0.73051 13.0339 0.730637C13.0339 0.733418 13.0337 0.740009 13.0332 0.748575C13.032 0.766654 13.0292 0.794114 13.0214 0.8268L12.5351 0.710619C13.3845 0.43374 14.3391 0.618389 15.0228 1.23407C15.1184 1.17188 15.2158 1.11234 15.3147 1.05554C15.4962 0.950363 15.6939 0.858511 15.8999 0.780508C16.1056 0.701524 16.3265 0.646541 16.5504 0.617445M13.0606 1.10231C13.1577 1.27611 13.369 1.56633 13.8145 2.05076C14.3489 2.63166 14.8365 3.14847 15.207 3.46717C15.2404 3.49591 15.2715 3.5218 15.3002 3.54508C15.4011 3.0619 15.3413 2.56135 15.1057 2.13105L15.0192 1.97291M13.0606 1.10231L15.0158 1.83504M16.5504 0.617445L16.6061 1.08413C16.4422 1.08839 16.2654 1.10973 16.0825 1.15742C16.0711 1.16033 16.0596 1.16331 16.0481 1.16635C16.0475 1.16652 16.0468 1.16669 16.0462 1.16686C15.8782 1.21137 15.7015 1.26989 15.5248 1.34875M16.5504 0.617445L16.6345 0.607407M16.5504 0.617445L16.611 1.08401C16.6276 1.08361 16.6442 1.08339 16.6605 1.08333L16.6644 1.08332V1.08334L16.6897 1.08344L16.6345 0.607407M15.5248 1.34875C15.525 1.34863 15.5253 1.34852 15.5255 1.3484L15.5584 1.42278M15.5248 1.34875C15.5245 1.34888 15.5242 1.349 15.5239 1.34913L15.5572 1.42372M15.5584 1.42278L15.5572 1.42372M15.5584 1.42278L15.7437 1.28201C15.7516 1.2924 15.7594 1.30297 15.7638 1.30902C15.7644 1.30987 15.765 1.31063 15.7655 1.31129L15.5722 1.45399L15.7638 1.30896C15.7635 1.30855 15.7515 1.2923 15.7447 1.28332L15.559 1.42396L15.5586 1.42314L15.5584 1.42278ZM15.5572 1.42372L15.537 1.43905L15.5356 1.44016L15.3816 1.55714L15.2821 1.63276L15.0158 1.83504M15.5572 1.42372L15.0158 1.83504M15.0158 1.83504L14.9649 1.87374M15.0158 1.83504L15.0184 1.97153M14.9649 1.87374L14.9475 1.88697L14.9593 1.903M14.9649 1.87374L14.9649 1.87377L14.9657 1.87517L14.9485 1.88828L14.9593 1.903M14.9593 1.903L14.9611 1.90533L14.9761 1.89423M14.9593 1.903L14.9747 1.89171L14.9761 1.89418L14.9761 1.89423M14.9761 1.89423L15.0106 1.95728M14.9761 1.89423L15.3494 1.61853C15.3652 1.6085 15.3811 1.59856 15.397 1.58869C15.452 1.55457 15.5075 1.52139 15.5637 1.48916L15.5637 1.48916L15.5655 1.48813C15.5709 1.48499 15.5763 1.48186 15.5818 1.47875L15.611 1.54424L15.4345 1.66567L15.0106 1.95728M15.0106 1.95728L15.0023 1.963L15.0032 1.96432M15.0106 1.95728L15.0106 1.95729L15.0114 1.95868L15.0032 1.96432M15.0032 1.96432L15.0123 1.97756L15.0192 1.97291M15.0032 1.96432L15.0114 1.97624L15.0184 1.97153M15.0192 1.97291L15.4441 1.68546L15.6207 1.56601L15.7223 1.79347L15.5443 1.89093L15.6452 2.09786M15.0192 1.97291L15.0192 1.9729L15.0184 1.97153M15.0184 1.97153L15.6452 2.09786M16.7154 1.58356L16.6622 1.58333C16.5197 1.58382 16.3658 1.60016 16.2075 1.64156C16.1417 1.65829 16.0752 1.6772 16.0085 1.6987C16.0001 1.68268 15.9916 1.66672 15.9829 1.65081L15.7224 1.79344L15.6215 1.56547L15.8406 1.41729L15.8397 1.41599L15.8397 1.41598L15.8271 1.39756L15.8262 1.39624L15.6119 1.54364L15.5829 1.4781C15.7333 1.39235 15.8998 1.31519 16.077 1.24812L16.077 1.24813L16.0792 1.24726C16.0868 1.24434 16.0944 1.24146 16.1021 1.23862L16.2075 1.64154L16.1046 1.23768C16.2638 1.17886 16.4362 1.13668 16.6123 1.1136L16.6606 1.10784L16.6643 1.1074L16.6921 1.10408L16.6937 1.10388L16.7133 1.10162L16.7154 1.58356ZM16.7154 1.58356L16.7416 1.58344L16.7673 1.58635M16.7154 1.58356L16.7174 1.10132L16.7368 1.10056L16.7396 1.10047L16.7966 1.09863L16.8209 1.09784L16.7673 1.58635M16.7673 1.58635C16.8013 1.59009 16.8349 1.59333 16.868 1.59605L16.9637 1.61488M16.7673 1.58635L16.8226 1.09778L16.8858 1.09574M16.9637 1.61488C16.9899 1.61825 17.015 1.6262 17.0396 1.63404C17.0448 1.63569 17.05 1.63733 17.0551 1.63892M16.9637 1.61488L17.0602 1.12428L17.0486 1.12199M16.9637 1.61488L17.0274 1.11895C17.0346 1.11988 17.0417 1.1209 17.0486 1.12199M17.0551 1.63892L17.0993 1.65201M17.0551 1.63892L17.2027 1.16119L17.2009 1.16062M17.0551 1.63892L17.197 1.15949L17.2009 1.16062M17.0993 1.65201L17.1212 1.6582C17.1258 1.65989 17.1302 1.66186 17.1346 1.66383C17.1372 1.66498 17.1398 1.66613 17.1424 1.66722C17.1705 1.67941 17.1982 1.69084 17.2255 1.70164C17.228 1.70267 17.2305 1.70361 17.233 1.70456C17.2373 1.70621 17.2417 1.70785 17.2459 1.70994L17.2656 1.72092M17.0993 1.65201L17.2413 1.17258L17.2383 1.17169M17.0993 1.65201L17.2353 1.17084L17.2383 1.17169M17.2656 1.72092L17.3046 1.74213M17.2656 1.72092L17.5089 1.2841L17.5067 1.2829M17.2656 1.72092L17.5046 1.28172L17.5067 1.2829M17.3046 1.74213L17.343 1.76232C17.3558 1.76854 17.3685 1.77507 17.3805 1.78421M17.3046 1.74213L17.5435 1.30293L17.5403 1.30116M17.3046 1.74213L17.537 1.29944L17.5403 1.30116M17.3805 1.78421C17.4785 1.84711 17.5685 1.91444 17.6481 1.98916L17.7063 2.04425M17.3805 1.78421L17.6825 1.38573C17.6754 1.38031 17.6683 1.37519 17.6614 1.37037M17.3805 1.78421L17.6506 1.36342C17.6542 1.36572 17.6578 1.36804 17.6614 1.37037M17.7063 2.04425L17.7345 2.07041C17.7404 2.07588 17.7459 2.08224 17.7514 2.08854C17.7546 2.09224 17.7578 2.09592 17.7611 2.09939L17.8596 2.20826C17.8784 2.23009 17.8958 2.25282 17.9124 2.27452C17.9227 2.288 17.9327 2.30109 17.9426 2.31332C17.9523 2.32607 17.9618 2.33798 17.971 2.34949C17.9859 2.36799 17.9999 2.38545 18.0122 2.40366M17.7063 2.04425L18.0499 1.68102L18.0481 1.67928M17.7063 2.04425L18.0462 1.67754L18.0481 1.67928M18.0122 2.40366L18.1379 2.58824C18.151 2.60741 18.1656 2.6265 18.1811 2.64446C18.4031 2.90111 18.7914 2.92934 19.0483 2.70752C19.3053 2.48567 19.3335 2.09776 19.1115 1.84108M18.0122 2.40366L18.4261 2.12322L18.5506 2.30604L18.1379 2.58822L18.5512 2.30684L18.5508 2.30631C18.5539 2.3108 18.557 2.31474 18.5594 2.31752L18.1814 2.64419L18.5592 2.31734C18.6006 2.36521 18.6734 2.37062 18.7215 2.32906L18.7216 2.32904C18.7694 2.28776 18.7746 2.21595 18.7334 2.16829L18.7335 2.16843L19.1115 1.84108M18.0122 2.40366L18.4255 2.12227L18.4257 2.1226C18.4044 2.09117 18.3833 2.06454 18.3703 2.04821C18.3654 2.04198 18.3614 2.03705 18.3581 2.03289C18.3506 2.02355 18.3463 2.01819 18.3409 2.01105L18.3365 2.00527L18.3319 1.99962C18.3263 1.99261 18.3213 1.98609 18.3127 1.97484C18.309 1.97004 18.3047 1.96437 18.2994 1.95744C18.2844 1.93799 18.2633 1.91077 18.2387 1.88223L18.2388 1.88212L18.2303 1.87265L18.1317 1.76378L18.1317 1.76374L18.1293 1.76119M19.1115 1.84108L19.1008 1.82874L18.9066 1.60431M19.1115 1.84108L18.7333 2.1682L18.7228 2.15609L18.7226 2.15586L18.5301 1.93323L18.9066 1.60431M18.9066 1.60431C18.8863 1.58105 18.8625 1.55733 18.8373 1.53216C18.824 1.51887 18.8102 1.50517 18.7964 1.49091M18.9066 1.60431L18.5285 1.93144L18.5294 1.93251C18.5192 1.92082 18.5123 1.9141 18.4996 1.90162C18.4879 1.89003 18.471 1.87348 18.4417 1.84338M18.7964 1.49091C18.7825 1.47726 18.7685 1.46306 18.7542 1.4485C18.7259 1.41982 18.6962 1.38974 18.6634 1.35966M18.7964 1.49091L18.4378 1.83934C18.4391 1.84071 18.4404 1.84206 18.4417 1.84338M18.7964 1.49091L18.4458 1.84739C18.4444 1.84603 18.443 1.84469 18.4417 1.84338M18.6634 1.35966L18.5004 1.21879M18.6634 1.35966L18.3259 1.72861C18.3275 1.7301 18.3291 1.73155 18.3306 1.73298M18.6634 1.35966L18.3363 1.73791L18.3306 1.73298M18.5004 1.21879C18.4953 1.21454 18.4903 1.21017 18.4852 1.20578C18.4759 1.19763 18.4665 1.18942 18.4562 1.18177L18.4079 1.14626L18.3077 1.07316M18.5004 1.21879L18.1734 1.59703L18.1764 1.5996M18.5004 1.21879L18.1808 1.60329C18.1793 1.60203 18.1778 1.6008 18.1764 1.5996M18.3077 1.07316C18.1703 0.974855 18.0081 0.881267 17.8267 0.799075C17.8047 0.787716 17.7811 0.778735 17.7571 0.77013L17.6851 0.743488M18.3077 1.07316L18.0129 1.477L18.015 1.4785M18.3077 1.07316L18.0168 1.47981C18.0162 1.47938 18.0156 1.47894 18.015 1.4785M17.6851 0.743488L17.6122 0.716883C17.5878 0.707259 17.5627 0.699316 17.5372 0.693109L17.3818 0.652843M17.6851 0.743488L17.5116 1.21241L17.4409 1.18661L17.4288 1.18222L17.4289 1.18206C17.4257 1.1808 17.4224 1.17975 17.419 1.17893L17.4118 1.17718L17.4118 1.17712L17.257 1.13701L17.263 1.13851L17.3818 0.652843M17.6851 0.743488L17.5138 1.21321L17.5836 1.23905L17.5836 1.23907L17.5883 1.24076C17.5957 1.24343 17.6 1.24503 17.6024 1.24599M17.3818 0.652843C17.3773 0.65173 17.3727 0.650562 17.3682 0.649393C17.3597 0.647194 17.3511 0.644992 17.3424 0.643144M17.3818 0.652843L17.2716 1.0781L17.3424 0.643144M17.3424 0.643144L17.3021 0.636578M17.3424 0.643144L17.238 1.13213C17.2364 1.13177 17.2353 1.13151 17.2355 1.13155C17.2356 1.13158 17.2366 1.13182 17.2387 1.13237L17.2426 1.13336L17.2438 1.13367M17.3021 0.636578L17.2208 0.62371M17.3021 0.636578L17.2218 1.13008L17.1431 1.11762M17.3021 0.636578L17.2239 1.13042L17.2438 1.13367M17.2208 0.62371C17.2165 0.623017 17.212 0.622319 17.2076 0.621621C17.1576 0.613686 17.1072 0.605694 17.0559 0.604237C17.0406 0.603377 17.0253 0.602441 17.01 0.601502C16.9695 0.599022 16.9288 0.596529 16.888 0.595407M17.2208 0.62371L17.1431 1.11762M17.2208 0.62371L17.1426 1.11755L17.1431 1.11762M16.888 0.595407L16.7189 0.600879M16.888 0.595407L16.8742 1.09468C16.8571 1.09307 16.8396 1.09129 16.8218 1.08934L16.7979 1.08662L16.7688 1.08332L16.7395 1.08345L16.7378 1.08346L16.7189 0.600879M16.888 0.595407L16.9041 1.09514L16.8882 1.09566M16.7189 0.600879L16.6764 0.602539M16.7189 0.600879L16.7346 1.08347L16.7322 1.08348L16.6764 0.602539M16.6764 0.602539L16.6345 0.607407M16.6764 0.602539L16.6952 1.08347L16.6913 1.08345L16.6345 0.607407M16.8882 1.09566C16.8864 1.0956 16.8847 1.09554 16.883 1.09548C16.8839 1.09557 16.8849 1.09565 16.8858 1.09574M16.8882 1.09566L16.8858 1.09574M16.8882 1.09566C16.9148 1.09662 16.9402 1.09818 16.9712 1.10009C16.988 1.10112 17.0065 1.10225 17.0278 1.10345L17.0278 1.10364L17.0417 1.10404C17.0584 1.10451 17.0772 1.10725 17.1431 1.11762M16.8858 1.09574C16.8935 1.09643 16.9012 1.0971 16.9089 1.09772L16.9369 1.10002L16.9645 1.10545L17.0486 1.12199M17.2438 1.13367L17.2479 1.13472L17.2564 1.13686L17.2567 1.13577L17.2438 1.13367ZM17.6024 1.24599L17.6088 1.24927L17.6204 1.25451C17.7736 1.32395 17.9065 1.40111 18.015 1.4785M17.6024 1.24599C17.6031 1.24626 17.6037 1.24647 17.6041 1.24665C17.6044 1.24679 17.6046 1.24687 17.6046 1.24688C17.6048 1.24694 17.6021 1.2458 17.5975 1.24344L17.6024 1.24599ZM18.015 1.4785L18.1117 1.54913L18.4078 1.14631L18.1131 1.5501L18.1529 1.5794M18.1529 1.5794L18.1558 1.58188L18.1618 1.58715C18.1655 1.59034 18.1705 1.5947 18.1764 1.5996M18.1529 1.5794L18.16 1.58464L18.4562 1.1818L18.1577 1.58293C18.1509 1.57786 18.1475 1.57469 18.1519 1.57852L18.1529 1.5794ZM18.1764 1.5996L18.3306 1.73298M18.3306 1.73298C18.3527 1.7533 18.3671 1.76804 18.3864 1.78774C18.4006 1.80221 18.4174 1.81936 18.4417 1.84338M18.1293 1.76119L18.1284 1.76008L18.1237 1.75478L18.1237 1.75466C18.1173 1.74744 18.0997 1.7274 18.0766 1.70571L18.0766 1.70571L18.0744 1.7037L18.0481 1.67928M18.1293 1.76119L18.1267 1.75838C18.1296 1.76151 18.1313 1.76347 18.1305 1.76251L18.1293 1.76119ZM18.0481 1.67928L17.9917 1.62592L17.9917 1.62592L17.9902 1.62456C17.8865 1.5272 17.7747 1.44377 17.6614 1.37037M17.6614 1.37037C17.6222 1.34317 17.5872 1.32521 17.5692 1.31632M17.5692 1.31632L17.5403 1.30116M17.5692 1.31632C17.5669 1.31521 17.5649 1.31424 17.5632 1.31341L17.5622 1.31292L17.343 1.76231L17.5755 1.31963L17.5692 1.31632ZM17.5403 1.30116L17.5067 1.2829M17.5067 1.2829L17.4892 1.27312L17.4784 1.26711L17.4673 1.26163C17.443 1.24963 17.4225 1.24172 17.4153 1.23896L17.4123 1.23782M17.4123 1.23782L17.4091 1.23655C17.3869 1.22778 17.3644 1.21848 17.3414 1.20851L17.3414 1.20848L17.3379 1.20699M17.4123 1.23782L17.4107 1.23719L17.4096 1.23677L17.4177 1.24004L17.4177 1.23996L17.4123 1.23782ZM17.3379 1.20699L17.3373 1.20675L17.3335 1.20506C17.328 1.20263 17.3137 1.19635 17.2961 1.18978L17.2769 1.18261L17.2572 1.17703L17.2383 1.17169M17.3379 1.20699L17.3357 1.20606C17.3381 1.20707 17.3395 1.20773 17.339 1.20748L17.3379 1.20699ZM17.2383 1.17169L17.2009 1.16062M17.2009 1.16062L17.1835 1.15511C17.1748 1.15236 17.1622 1.14843 17.1481 1.14438C17.1241 1.1375 17.0897 1.12851 17.0486 1.12199M15.6452 2.09786C15.922 2.74142 15.9057 3.46878 15.6491 4.11395C15.4769 4.5468 14.5069 3.54201 13.4466 2.38925C12.3862 1.23649 12.4522 0.981346 12.5322 0.736431L15.6452 2.09786ZM15.5682 3.72508C15.5682 3.72517 15.5667 3.72475 15.5636 3.72356C15.5666 3.72439 15.5681 3.72499 15.5682 3.72508ZM15.5577 1.4249L15.5376 1.44011L15.5362 1.44122L15.382 1.55796L15.3461 1.58514L15.5577 1.4249ZM12.9921 0.938993C12.9921 0.93901 12.9922 0.939644 12.9922 0.940844L12.9921 0.938993Z" fill="#B4BAB9" stroke="black"/>
</svg>
